<svg version="1.1" viewBox="0.0 0.0 720.0 540.0" fill="none" stroke="none" stroke-linecap="square" stroke-miterlimit="10" xmlns:xlink="http://www.w3.org/1999/xlink" xmlns="http://www.w3.org/2000/svg"><clipPath id="p.0"><path d="m0 0l720.0 0l0 540.0l-720.0 0l0 -540.0z" clip-rule="nonzero"/></clipPath><g clip-path="url(#p.0)"><path fill="#000000" fill-opacity="0.0" d="m0 0l720.0 0l0 540.0l-720.0 0z" fill-rule="evenodd"/><path fill="#cfe2f3" d="m196.99738 363.04752c0 -7.610382 6.1694336 -13.779785 13.7798 -13.779785l98.04671 0c3.6546326 0 7.1595764 1.4517822 9.743774 4.0360107c2.5842285 2.584198 4.0360107 6.089142 4.0360107 9.743774l0 55.117554c0 7.610382 -6.1694336 13.779816 -13.779785 13.779816l-98.04671 0c-7.610367 0 -13.7798 -6.1694336 -13.7798 -13.779816z" fill-rule="evenodd"/><path stroke="#000000" stroke-width="1.0" stroke-linejoin="round" stroke-linecap="butt" d="m196.99738 363.04752c0 -7.610382 6.1694336 -13.779785 13.7798 -13.779785l98.04671 0c3.6546326 0 7.1595764 1.4517822 9.743774 4.0360107c2.5842285 2.584198 4.0360107 6.089142 4.0360107 9.743774l0 55.117554c0 7.610382 -6.1694336 13.779816 -13.779785 13.779816l-98.04671 0c-7.610367 0 -13.7798 -6.1694336 -13.7798 -13.779816z" fill-rule="evenodd"/><path fill="#000000" d="m243.77763 400.47192q-2.015625 0 -3.78125 -0.734375q-1.765625 -0.734375 -3.09375 -2.03125q-1.328125 -1.3125 -2.0625 -3.046875q-0.734375 -1.75 -0.734375 -3.78125q0 -2.0 0.734375 -3.734375q0.734375 -1.734375 2.046875 -3.015625q1.328125 -1.296875 3.078125 -2.015625q1.765625 -0.71875 3.78125 -0.71875q1.421875 0 2.765625 0.40625q1.34375 0.390625 2.4375 1.109375q1.09375 0.71875 1.78125 1.65625l-1.859375 1.9375q-0.796875 -0.765625 -1.640625 -1.265625q-0.84375 -0.515625 -1.71875 -0.78125q-0.875 -0.265625 -1.765625 -0.265625q-1.4375 0 -2.65625 0.515625q-1.203125 0.5 -2.125 1.40625q-0.921875 0.90625 -1.421875 2.125q-0.5 1.203125 -0.5 2.640625q0 1.390625 0.53125 2.625q0.53125 1.234375 1.46875 2.171875q0.953125 0.9375 2.1875 1.46875q1.25 0.53125 2.625 0.53125q1.046875 0 1.96875 -0.296875q0.9375 -0.3125 1.65625 -0.875q0.71875 -0.5625 1.125 -1.296875q0.40625 -0.734375 0.40625 -1.5625l0 -0.53125l0.390625 0.375l-5.703125 0l0 -2.84375l8.265625 0q0.046875 0.28125 0.078125 0.5625q0.03125 0.28125 0.03125 0.546875q0.015625 0.25 0.015625 0.484375q0 1.84375 -0.640625 3.34375q-0.625 1.5 -1.765625 2.59375q-1.125 1.09375 -2.640625 1.703125q-1.5 0.59375 -3.265625 0.59375zm12.07486 -0.265625l0 -18.65625l7.5937347 0q1.53125 0 2.765625 0.765625q1.234375 0.75 1.984375 2.0625q0.75 1.296875 0.75 2.90625q0 1.59375 -0.75 2.90625q-0.75 1.296875 -1.984375 2.09375q-1.234375 0.78125 -2.765625 0.78125l-4.71875 0l0 7.140625l-2.8749847 0zm2.8749847 -9.921875l4.671875 0q0.71875 0 1.296875 -0.40625q0.59375 -0.421875 0.953125 -1.09375q0.359375 -0.6875 0.359375 -1.5q0 -0.828125 -0.359375 -1.5q-0.359375 -0.671875 -0.953125 -1.0625q-0.578125 -0.40625 -1.296875 -0.40625l-4.671875 0l0 5.96875zm19.790619 10.1875q-1.53125 0 -2.828125 -0.390625q-1.28125 -0.40625 -2.34375 -1.21875q-1.046875 -0.8125 -1.875 -2.015625l1.984375 -2.265625q1.296875 1.859375 2.5 2.59375q1.203125 0.71875 2.84375 0.71875q1.015625 0 1.84375 -0.3125q0.828125 -0.328125 1.296875 -0.890625q0.484375 -0.5625 0.484375 -1.28125q0 -0.484375 -0.15625 -0.90625q-0.15625 -0.421875 -0.5 -0.765625q-0.328125 -0.359375 -0.84375 -0.640625q-0.515625 -0.296875 -1.21875 -0.515625q-0.6875 -0.234375 -1.59375 -0.40625q-1.4375 -0.28125 -2.515625 -0.765625q-1.0625 -0.484375 -1.78125 -1.203125q-0.71875 -0.71875 -1.0625 -1.640625q-0.34375 -0.921875 -0.34375 -2.0625q0 -1.125 0.484375 -2.078125q0.5 -0.953125 1.359375 -1.65625q0.875 -0.71875 2.046875 -1.09375q1.171875 -0.390625 2.53125 -0.390625q1.4375 0 2.640625 0.375q1.203125 0.375 2.125 1.109375q0.9375 0.71875 1.546875 1.796875l-2.015625 2.0q-0.53125 -0.890625 -1.203125 -1.484375q-0.671875 -0.609375 -1.46875 -0.90625q-0.796875 -0.3125 -1.703125 -0.3125q-1.03125 0 -1.8125 0.328125q-0.765625 0.3125 -1.21875 0.890625q-0.4375 0.578125 -0.4375 1.34375q0 0.5625 0.21875 1.03125q0.21875 0.46875 0.65625 0.828125q0.4375 0.359375 1.171875 0.640625q0.75 0.265625 1.796875 0.484375q1.46875 0.328125 2.609375 0.828125q1.140625 0.484375 1.9375 1.15625q0.8125 0.65625 1.21875 1.484375q0.421875 0.828125 0.421875 1.78125q0 1.78125 -0.828125 3.09375q-0.828125 1.3125 -2.359375 2.015625q-1.515625 0.703125 -3.609375 0.703125z" fill-rule="nonzero"/><path fill="#cfe2f3" d="m567.8583 212.6512c0 -7.610382 6.1694336 -13.779816 13.779785 -13.779816l98.04669 0c3.654663 0 7.159607 1.4517975 9.743774 4.0360107c2.5842285 2.5842285 4.0360107 6.0891724 4.0360107 9.743805l0 55.11757c0 7.6103516 -6.1693726 13.779785 -13.779785 13.779785l-98.04669 0c-7.6103516 0 -13.779785 -6.1694336 -13.779785 -13.779785z" fill-rule="evenodd"/><path stroke="#000000" stroke-width="1.0" stroke-linejoin="round" stroke-linecap="butt" d="m567.8583 212.6512c0 -7.610382 6.1694336 -13.779816 13.779785 -13.779816l98.04669 0c3.654663 0 7.159607 1.4517975 9.743774 4.0360107c2.5842285 2.5842285 4.0360107 6.0891724 4.0360107 9.743805l0 55.11757c0 7.6103516 -6.1693726 13.779785 -13.779785 13.779785l-98.04669 0c-7.6103516 0 -13.779785 -6.1694336 -13.779785 -13.779785z" fill-rule="evenodd"/><path fill="#000000" d="m610.2546 235.40997l0 -14.0l5.703125 0q1.140625 0 2.0625 0.578125q0.9375 0.5625 1.5 1.546875q0.5625 0.96875 0.5625 2.171875q0 1.203125 -0.5625 2.1875q-0.5625 0.96875 -1.5 1.5625q-0.921875 0.59375 -2.0625 0.59375l-3.53125 0l0 5.359375l-2.171875 0zm2.171875 -7.4375l3.5 0q0.53125 0 0.96875 -0.3125q0.453125 -0.3125 0.71875 -0.8125q0.265625 -0.515625 0.265625 -1.140625q0 -0.609375 -0.265625 -1.109375q-0.265625 -0.5 -0.71875 -0.796875q-0.4375 -0.3125 -0.96875 -0.3125l-3.5 0l0 4.484375zm13.839355 7.640625q-1.296875 0 -2.375 -0.71875q-1.0625 -0.71875 -1.703125 -1.953125q-0.640625 -1.25 -0.640625 -2.8125q0 -1.578125 0.640625 -2.796875q0.65625 -1.234375 1.765625 -1.9375q1.109375 -0.703125 2.484375 -0.703125q0.828125 0 1.5 0.25q0.6875 0.234375 1.1875 0.671875q0.515625 0.421875 0.84375 0.984375q0.328125 0.546875 0.40625 1.1875l-0.453125 -0.15625l0 -2.71875l2.078125 0l0 10.5l-2.078125 0l0 -2.5l0.484375 -0.140625q-0.125 0.546875 -0.5 1.0625q-0.359375 0.5 -0.9375 0.90625q-0.5625 0.390625 -1.265625 0.640625q-0.6875 0.234375 -1.4375 0.234375zm0.53125 -1.90625q0.9375 0 1.65625 -0.453125q0.734375 -0.46875 1.140625 -1.265625q0.40625 -0.8125 0.40625 -1.859375q0 -1.015625 -0.40625 -1.8125q-0.40625 -0.8125 -1.140625 -1.265625q-0.71875 -0.453125 -1.65625 -0.453125q-0.921875 0 -1.625 0.453125q-0.703125 0.453125 -1.125 1.265625q-0.40625 0.796875 -0.40625 1.8125q0 1.046875 0.40625 1.859375q0.421875 0.796875 1.125 1.265625q0.703125 0.453125 1.625 0.453125zm9.378723 1.703125l0 -13.1875l2.0625 0l0 13.1875l-2.0625 0zm-2.171875 -8.5l0 -2.0l6.671875 0l0 2.0l-6.671875 0zm8.554993 8.5l0 -14.796875l2.0625 0l0 6.453125l-0.359375 0.25q0.203125 -0.703125 0.78125 -1.296875q0.578125 -0.59375 1.375 -0.953125q0.796875 -0.375 1.640625 -0.375q1.203125 0 2.0 0.46875q0.796875 0.46875 1.203125 1.4375q0.40625 0.953125 0.40625 2.40625l0 6.40625l-2.0625 0l0 -6.265625q0 -0.890625 -0.25 -1.484375q-0.234375 -0.59375 -0.734375 -0.859375q-0.5 -0.265625 -1.234375 -0.234375q-0.609375 0 -1.109375 0.203125q-0.5 0.1875 -0.875 0.53125q-0.359375 0.328125 -0.578125 0.78125q-0.203125 0.453125 -0.203125 0.96875l0 6.359375l-1.015625 0q-0.265625 0 -0.53125 0q-0.25 0 -0.515625 0z" fill-rule="nonzero"/><path fill="#000000" d="m595.259 263.81622l0 -14.90625l2.078125 0l0 2.40625l-0.3125 -0.1875q0.109375 -0.59375 0.671875 -1.140625q0.5625 -0.5625 1.375 -0.90625q0.8125 -0.359375 1.671875 -0.359375q1.421875 0 2.515625 0.703125q1.109375 0.703125 1.734375 1.921875q0.640625 1.21875 0.640625 2.796875q0 1.5625 -0.625 2.796875q-0.625 1.234375 -1.734375 1.953125q-1.09375 0.703125 -2.46875 0.703125q-0.921875 0 -1.78125 -0.375q-0.859375 -0.375 -1.46875 -0.953125q-0.59375 -0.578125 -0.734375 -1.203125l0.515625 -0.28125l0 7.03125l-2.078125 0zm5.203125 -6.125q0.921875 0 1.640625 -0.453125q0.71875 -0.46875 1.140625 -1.265625q0.421875 -0.796875 0.421875 -1.828125q0 -1.015625 -0.421875 -1.796875q-0.40625 -0.796875 -1.125 -1.25q-0.71875 -0.46875 -1.65625 -0.46875q-0.9375 0 -1.65625 0.453125q-0.71875 0.453125 -1.140625 1.25q-0.421875 0.796875 -0.421875 1.8125q0 1.03125 0.421875 1.828125q0.421875 0.796875 1.140625 1.265625q0.71875 0.453125 1.65625 0.453125zm7.463745 1.71875l0 -14.796875l2.0625 0l0 14.796875l-2.0625 0zm8.819946 0.203125q-1.296875 0 -2.375 -0.71875q-1.0625 -0.71875 -1.703125 -1.953125q-0.640625 -1.25 -0.640625 -2.8125q0 -1.578125 0.640625 -2.796875q0.65625 -1.234375 1.765625 -1.9375q1.109375 -0.703125 2.484375 -0.703125q0.828125 0 1.5 0.25q0.6875 0.234375 1.1875 0.671875q0.515625 0.421875 0.84375 0.984375q0.328125 0.546875 0.40625 1.1875l-0.453125 -0.15625l0 -2.71875l2.078125 0l0 10.5l-2.078125 0l0 -2.5l0.484375 -0.140625q-0.125 0.546875 -0.5 1.0625q-0.359375 0.5 -0.9375 0.90625q-0.5625 0.390625 -1.265625 0.640625q-0.6875 0.234375 -1.4375 0.234375zm0.53125 -1.90625q0.9375 0 1.65625 -0.453125q0.734375 -0.46875 1.140625 -1.265625q0.40625 -0.8125 0.40625 -1.859375q0 -1.015625 -0.40625 -1.8125q-0.40625 -0.8125 -1.140625 -1.265625q-0.71875 -0.453125 -1.65625 -0.453125q-0.921875 0 -1.625 0.453125q-0.703125 0.453125 -1.125 1.265625q-0.40625 0.796875 -0.40625 1.8125q0 1.046875 0.40625 1.859375q0.421875 0.796875 1.125 1.265625q0.703125 0.453125 1.625 0.453125zm8.081909 1.703125l0 -10.5l2.0625 0l0 2.15625l-0.359375 0.25q0.203125 -0.703125 0.78125 -1.296875q0.578125 -0.59375 1.375 -0.953125q0.796875 -0.375 1.640625 -0.375q1.203125 0 2.0 0.46875q0.796875 0.46875 1.203125 1.4375q0.40625 0.953125 0.40625 2.40625l0 6.40625l-2.0625 0l0 -6.265625q0 -0.890625 -0.25 -1.484375q-0.234375 -0.59375 -0.734375 -0.859375q-0.5 -0.265625 -1.234375 -0.234375q-0.609375 0 -1.109375 0.203125q-0.5 0.1875 -0.875 0.53125q-0.359375 0.328125 -0.578125 0.78125q-0.203125 0.453125 -0.203125 0.96875l0 6.359375l-1.015625 0q-0.265625 0 -0.53125 0q-0.25 0 -0.515625 0zm11.899963 0l0 -10.5l2.0625 0l0 2.15625l-0.359375 0.25q0.203125 -0.703125 0.78125 -1.296875q0.578125 -0.59375 1.375 -0.953125q0.796875 -0.375 1.640625 -0.375q1.203125 0 2.0 0.46875q0.796875 0.46875 1.203125 1.4375q0.40625 0.953125 0.40625 2.40625l0 6.40625l-2.0625 0l0 -6.265625q0 -0.890625 -0.25 -1.484375q-0.234375 -0.59375 -0.734375 -0.859375q-0.5 -0.265625 -1.234375 -0.234375q-0.609375 0 -1.109375 0.203125q-0.5 0.1875 -0.875 0.53125q-0.359375 0.328125 -0.578125 0.78125q-0.203125 0.453125 -0.203125 0.96875l0 6.359375l-1.015625 0q-0.265625 0 -0.53125 0q-0.25 0 -0.515625 0zm16.806274 0.203125q-1.625 0 -2.875 -0.6875q-1.25 -0.703125 -1.96875 -1.890625q-0.703125 -1.203125 -0.703125 -2.765625q0 -1.234375 0.390625 -2.25q0.40625 -1.03125 1.109375 -1.78125q0.71875 -0.75 1.703125 -1.15625q1.0 -0.40625 2.15625 -0.40625q1.03125 0 1.90625 0.390625q0.875 0.390625 1.515625 1.078125q0.65625 0.671875 1.0 1.609375q0.359375 0.921875 0.34375 2.015625l-0.015625 0.875l-8.59375 0l-0.453125 -1.640625l7.265625 0l-0.3125 0.34375l0 -0.484375q-0.046875 -0.65625 -0.4375 -1.171875q-0.375 -0.515625 -0.953125 -0.8125q-0.578125 -0.3125 -1.265625 -0.3125q-1.078125 0 -1.828125 0.421875q-0.734375 0.40625 -1.109375 1.203125q-0.375 0.78125 -0.375 1.9375q0 1.09375 0.453125 1.90625q0.46875 0.8125 1.296875 1.25q0.84375 0.4375 1.953125 0.4375q0.765625 0 1.4375 -0.25q0.671875 -0.265625 1.453125 -0.9375l1.046875 1.453125q-0.484375 0.484375 -1.171875 0.84375q-0.6875 0.359375 -1.46875 0.578125q-0.765625 0.203125 -1.5 0.203125zm6.8137207 -0.203125l0 -10.5l2.078125 0l0 3.296875l-0.203125 -0.796875q0.234375 -0.765625 0.75 -1.375q0.53125 -0.625 1.21875 -0.984375q0.703125 -0.359375 1.4375 -0.359375q0.34375 0 0.65625 0.0625q0.3125 0.0625 0.484375 0.140625l-0.546875 2.234375q-0.234375 -0.09375 -0.53125 -0.15625q-0.28125 -0.078125 -0.5625 -0.078125q-0.53125 0 -1.03125 0.21875q-0.484375 0.203125 -0.859375 0.578125q-0.375 0.359375 -0.59375 0.859375q-0.21875 0.484375 -0.21875 1.0625l0 5.796875l-2.078125 0z" fill-rule="nonzero"/><path fill="#cfe2f3" d="m378.91077 52.666943c0 -7.6103745 6.1694336 -13.779804 13.779785 -13.779804l98.04669 0c3.6546326 0 7.1595764 1.4517975 9.743805 4.0360107c2.5842285 2.584217 4.0360107 6.089161 4.0360107 9.7437935l0 55.117558c0 7.6103745 -6.1694336 13.779808 -13.779816 13.779808l-98.04669 0c-7.6103516 0 -13.779785 -6.1694336 -13.779785 -13.779808z" fill-rule="evenodd"/><path stroke="#000000" stroke-width="1.0" stroke-linejoin="round" stroke-linecap="butt" d="m378.91077 52.666943c0 -7.6103745 6.1694336 -13.779804 13.779785 -13.779804l98.04669 0c3.6546326 0 7.1595764 1.4517975 9.743805 4.0360107c2.5842285 2.584217 4.0360107 6.089161 4.0360107 9.7437935l0 55.117558c0 7.6103745 -6.1694336 13.779808 -13.779816 13.779808l-98.04669 0c-7.6103516 0 -13.779785 -6.1694336 -13.779785 -13.779808z" fill-rule="evenodd"/><path fill="#000000" d="m395.74576 76.30572l0 -10.265625l4.171875 0q0.84375 0 1.515625 0.421875q0.6875 0.421875 1.09375 1.140625q0.40625 0.71875 0.40625 1.59375q0 0.875 -0.40625 1.59375q-0.40625 0.71875 -1.09375 1.15625q-0.671875 0.4375 -1.515625 0.4375l-2.59375 0l0 3.921875l-1.578125 0zm1.578125 -5.453125l2.5625 0q0.40625 0 0.71875 -0.21875q0.328125 -0.234375 0.515625 -0.609375q0.203125 -0.375 0.203125 -0.828125q0 -0.453125 -0.203125 -0.8125q-0.1875 -0.375 -0.515625 -0.59375q-0.3125 -0.21875 -0.71875 -0.21875l-2.5625 0l0 3.28125zm10.145416 5.59375q-0.953125 0 -1.734375 -0.515625q-0.78125 -0.53125 -1.25 -1.4375q-0.46875 -0.90625 -0.46875 -2.0625q0 -1.15625 0.46875 -2.046875q0.484375 -0.90625 1.296875 -1.421875q0.8125 -0.515625 1.8125 -0.515625q0.609375 0 1.109375 0.1875q0.5 0.171875 0.875 0.484375q0.375 0.3125 0.609375 0.734375q0.234375 0.40625 0.296875 0.875l-0.328125 -0.125l0 -1.984375l1.515625 0l0 7.6875l-1.515625 0l0 -1.828125l0.34375 -0.109375q-0.078125 0.40625 -0.359375 0.78125q-0.265625 0.359375 -0.6875 0.65625q-0.421875 0.296875 -0.921875 0.46875q-0.5 0.171875 -1.0625 0.171875zm0.390625 -1.390625q0.6875 0 1.21875 -0.328125q0.53125 -0.34375 0.828125 -0.9375q0.296875 -0.59375 0.296875 -1.359375q0 -0.734375 -0.296875 -1.328125q-0.296875 -0.59375 -0.828125 -0.921875q-0.53125 -0.34375 -1.21875 -0.34375q-0.671875 0 -1.1875 0.34375q-0.515625 0.328125 -0.828125 0.921875q-0.296875 0.59375 -0.296875 1.328125q0 0.765625 0.296875 1.359375q0.3125 0.59375 0.828125 0.9375q0.515625 0.328125 1.1875 0.328125zm5.9336853 1.25l0 -7.6875l1.515625 0l0 2.40625l-0.140625 -0.578125q0.15625 -0.5625 0.546875 -1.015625q0.390625 -0.453125 0.890625 -0.71875q0.5 -0.265625 1.046875 -0.265625q0.25 0 0.46875 0.046875q0.234375 0.046875 0.375 0.109375l-0.40625 1.640625q-0.171875 -0.078125 -0.390625 -0.125q-0.203125 -0.0625 -0.40625 -0.0625q-0.40625 0 -0.765625 0.15625q-0.359375 0.15625 -0.625 0.4375q-0.265625 0.265625 -0.4375 0.625q-0.15625 0.359375 -0.15625 0.78125l0 4.25l-1.515625 0zm7.281494 -2.40625l-0.078125 -1.640625l3.671875 -3.640625l2.046875 0l-5.640625 5.28125zm-1.375 2.40625l0 -10.84375l1.5 0l0 10.84375l-1.5 0zm5.1875 0l-2.90625 -3.390625l1.0625 -0.984375l3.765625 4.375l-1.921875 0zm2.8560486 -3.4375l0 -1.5l4.21875 0l0 1.5l-4.21875 0zm7.0089417 3.4375l0 -9.65625l1.5 0l0 9.65625l-1.5 0zm-1.609375 -6.234375l0 -1.453125l4.90625 0l0 1.453125l-4.90625 0zm9.6640625 6.375q-1.125 0 -2.015625 -0.515625q-0.890625 -0.515625 -1.40625 -1.421875q-0.5 -0.90625 -0.5 -2.0625q0 -1.15625 0.5 -2.046875q0.515625 -0.90625 1.40625 -1.421875q0.890625 -0.53125 2.015625 -0.53125q1.109375 0 2.0 0.53125q0.890625 0.515625 1.390625 1.421875q0.515625 0.890625 0.515625 2.046875q0 1.15625 -0.515625 2.0625q-0.5 0.90625 -1.390625 1.421875q-0.890625 0.515625 -2.0 0.515625zm0 -1.375q0.6875 0 1.21875 -0.34375q0.546875 -0.34375 0.859375 -0.9375q0.3125 -0.59375 0.296875 -1.34375q0.015625 -0.75 -0.296875 -1.34375q-0.3125 -0.59375 -0.859375 -0.9375q-0.53125 -0.34375 -1.21875 -0.34375q-0.6875 0 -1.25 0.34375q-0.546875 0.34375 -0.859375 0.9375q-0.296875 0.59375 -0.28125 1.34375q-0.015625 0.75 0.28125 1.34375q0.3125 0.59375 0.859375 0.9375q0.5625 0.34375 1.25 0.34375zm5.2792664 -2.203125l0 -1.5l4.21875 0l0 1.5l-4.21875 0zm9.258942 3.578125q-1.0625 0 -1.890625 -0.515625q-0.828125 -0.515625 -1.3125 -1.421875q-0.46875 -0.90625 -0.46875 -2.0625q0 -1.15625 0.46875 -2.046875q0.46875 -0.90625 1.296875 -1.421875q0.828125 -0.53125 1.859375 -0.53125q0.578125 0 1.109375 0.1875q0.53125 0.1875 0.953125 0.5q0.4375 0.3125 0.671875 0.6875q0.25 0.375 0.25 0.75l-0.453125 0.03125l0 -5.140625l1.515625 0l0 10.84375l-1.515625 0l0 -1.828125l0.296875 0q0 0.34375 -0.234375 0.6875q-0.234375 0.34375 -0.625 0.640625q-0.390625 0.296875 -0.890625 0.46875q-0.5 0.171875 -1.03125 0.171875zm0.203125 -1.296875q0.6875 0 1.21875 -0.34375q0.53125 -0.359375 0.828125 -0.96875q0.296875 -0.609375 0.296875 -1.390625q0 -0.765625 -0.296875 -1.375q-0.296875 -0.609375 -0.828125 -0.953125q-0.53125 -0.359375 -1.21875 -0.359375q-0.6875 0 -1.21875 0.359375q-0.53125 0.34375 -0.828125 0.953125q-0.296875 0.609375 -0.296875 1.375q0 0.78125 0.296875 1.390625q0.296875 0.609375 0.828125 0.96875q0.53125 0.34375 1.21875 0.34375zm5.8858643 1.15625l0 -7.6875l1.515625 0l0 2.40625l-0.140625 -0.578125q0.15625 -0.5625 0.546875 -1.015625q0.390625 -0.453125 0.890625 -0.71875q0.5 -0.265625 1.046875 -0.265625q0.25 0 0.46875 0.046875q0.234375 0.046875 0.375 0.109375l-0.40625 1.640625q-0.171875 -0.078125 -0.390625 -0.125q-0.203125 -0.0625 -0.40625 -0.0625q-0.40625 0 -0.765625 0.15625q-0.359375 0.15625 -0.625 0.4375q-0.265625 0.265625 -0.4375 0.625q-0.15625 0.359375 -0.15625 0.78125l0 4.25l-1.515625 0zm6.140869 0l0 -7.6875l1.515625 0l0 7.6875l-1.515625 0zm0.734375 -9.390625q-0.484375 0 -0.75 -0.25q-0.25 -0.25 -0.25 -0.703125q0 -0.421875 0.265625 -0.6875q0.265625 -0.265625 0.734375 -0.265625q0.484375 0 0.75 0.25q0.265625 0.25 0.265625 0.703125q0 0.421875 -0.28125 0.6875q-0.265625 0.265625 -0.734375 0.265625zm5.6213074 9.390625l-3.25 -7.6875l1.625 0l2.34375 5.75l-0.28125 0.140625l2.5 -5.890625l1.5625 0l-3.421875 7.6875l-1.078125 0zm9.24057 0.140625q-1.1875 0 -2.109375 -0.5q-0.90625 -0.5 -1.421875 -1.375q-0.515625 -0.890625 -0.515625 -2.03125q0 -0.90625 0.28125 -1.65625q0.296875 -0.75 0.8125 -1.296875q0.53125 -0.546875 1.25 -0.84375q0.734375 -0.3125 1.578125 -0.3125q0.75 0 1.390625 0.296875q0.640625 0.28125 1.109375 0.78125q0.484375 0.5 0.734375 1.1875q0.265625 0.671875 0.25 1.46875l-0.015625 0.65625l-6.28125 0l-0.34375 -1.203125l5.328125 0l-0.21875 0.25l0 -0.359375q-0.046875 -0.484375 -0.328125 -0.859375q-0.28125 -0.375 -0.703125 -0.59375q-0.421875 -0.234375 -0.921875 -0.234375q-0.796875 0 -1.34375 0.3125q-0.53125 0.296875 -0.8125 0.875q-0.28125 0.578125 -0.28125 1.421875q0 0.8125 0.328125 1.40625q0.34375 0.59375 0.953125 0.921875q0.625 0.3125 1.4375 0.3125q0.5625 0 1.046875 -0.1875q0.5 -0.1875 1.078125 -0.6875l0.765625 1.0625q-0.359375 0.359375 -0.875 0.625q-0.5 0.265625 -1.0625 0.421875q-0.5625 0.140625 -1.109375 0.140625z" fill-rule="nonzero"/><path fill="#000000" d="m412.28873 94.44634q-1.078125 0 -1.921875 -0.515625q-0.84375 -0.53125 -1.328125 -1.4375q-0.484375 -0.90625 -0.484375 -2.046875q0 -1.125 0.484375 -2.03125q0.484375 -0.90625 1.328125 -1.4375q0.84375 -0.53125 1.921875 -0.53125q1.015625 0 1.859375 0.421875q0.84375 0.421875 1.28125 1.140625l-0.828125 1.015625q-0.234375 -0.328125 -0.609375 -0.609375q-0.359375 -0.28125 -0.78125 -0.4375q-0.40625 -0.171875 -0.78125 -0.171875q-0.703125 0 -1.25 0.359375q-0.546875 0.34375 -0.875 0.9375q-0.328125 0.59375 -0.328125 1.34375q0 0.75 0.34375 1.34375q0.34375 0.59375 0.890625 0.953125q0.5625 0.34375 1.234375 0.34375q0.390625 0 0.765625 -0.125q0.375 -0.140625 0.71875 -0.40625q0.359375 -0.265625 0.671875 -0.640625l0.828125 1.03125q-0.46875 0.65625 -1.34375 1.078125q-0.859375 0.421875 -1.796875 0.421875zm8.0286255 0q-1.125 0 -2.015625 -0.515625q-0.890625 -0.515625 -1.40625 -1.421875q-0.5 -0.90625 -0.5 -2.0625q0 -1.15625 0.5 -2.046875q0.515625 -0.90625 1.40625 -1.421875q0.890625 -0.53125 2.015625 -0.53125q1.109375 0 2.0 0.53125q0.890625 0.515625 1.390625 1.421875q0.515625 0.890625 0.515625 2.046875q0 1.15625 -0.515625 2.0625q-0.5 0.90625 -1.390625 1.421875q-0.890625 0.515625 -2.0 0.515625zm0 -1.375q0.6875 0 1.21875 -0.34375q0.546875 -0.34375 0.859375 -0.9375q0.3125 -0.59375 0.296875 -1.34375q0.015625 -0.75 -0.296875 -1.34375q-0.3125 -0.59375 -0.859375 -0.9375q-0.53125 -0.34375 -1.21875 -0.34375q-0.6875 0 -1.25 0.34375q-0.546875 0.34375 -0.859375 0.9375q-0.296875 0.59375 -0.28125 1.34375q-0.015625 0.75 0.28125 1.34375q0.3125 0.59375 0.859375 0.9375q0.5625 0.34375 1.25 0.34375zm5.5605164 1.234375l0 -7.6875l1.5 0l0 1.578125l-0.265625 0.171875q0.15625 -0.515625 0.578125 -0.9375q0.421875 -0.4375 1.0 -0.703125q0.59375 -0.28125 1.203125 -0.28125q0.890625 0 1.46875 0.34375q0.59375 0.34375 0.875 1.046875q0.296875 0.703125 0.296875 1.78125l0 4.6875l-1.5 0l0 -4.59375q0 -0.65625 -0.1875 -1.078125q-0.171875 -0.4375 -0.546875 -0.625q-0.359375 -0.203125 -0.890625 -0.1875q-0.453125 0 -0.8125 0.140625q-0.359375 0.140625 -0.640625 0.390625q-0.265625 0.25 -0.421875 0.578125q-0.15625 0.328125 -0.15625 0.71875l0 4.65625l-0.75 0q-0.1875 0 -0.375 0q-0.1875 0 -0.375 0zm9.6736145 0l0 -9.65625l1.5 0l0 9.65625l-1.5 0zm-1.609375 -6.234375l0 -1.453125l4.90625 0l0 1.453125l-4.90625 0zm6.2842712 6.234375l0 -7.6875l1.515625 0l0 2.40625l-0.140625 -0.578125q0.15625 -0.5625 0.546875 -1.015625q0.390625 -0.453125 0.890625 -0.71875q0.5 -0.265625 1.046875 -0.265625q0.25 0 0.46875 0.046875q0.234375 0.046875 0.375 0.109375l-0.40625 1.640625q-0.171875 -0.078125 -0.390625 -0.125q-0.203125 -0.0625 -0.40625 -0.0625q-0.40625 0 -0.765625 0.15625q-0.359375 0.15625 -0.625 0.4375q-0.265625 0.265625 -0.4375 0.625q-0.15625 0.359375 -0.15625 0.78125l0 4.25l-1.515625 0zm9.036957 0.140625q-1.125 0 -2.015625 -0.515625q-0.890625 -0.515625 -1.40625 -1.421875q-0.5 -0.90625 -0.5 -2.0625q0 -1.15625 0.5 -2.046875q0.515625 -0.90625 1.40625 -1.421875q0.890625 -0.53125 2.015625 -0.53125q1.109375 0 2.0 0.53125q0.890625 0.515625 1.390625 1.421875q0.515625 0.890625 0.515625 2.046875q0 1.15625 -0.515625 2.0625q-0.5 0.90625 -1.390625 1.421875q-0.890625 0.515625 -2.0 0.515625zm0 -1.375q0.6875 0 1.21875 -0.34375q0.546875 -0.34375 0.859375 -0.9375q0.3125 -0.59375 0.296875 -1.34375q0.015625 -0.75 -0.296875 -1.34375q-0.3125 -0.59375 -0.859375 -0.9375q-0.53125 -0.34375 -1.21875 -0.34375q-0.6875 0 -1.25 0.34375q-0.546875 0.34375 -0.859375 0.9375q-0.296875 0.59375 -0.28125 1.34375q-0.015625 0.75 0.28125 1.34375q0.3125 0.59375 0.859375 0.9375q0.5625 0.34375 1.25 0.34375zm5.5761414 1.234375l0 -10.84375l1.515625 0l0 10.84375l-1.515625 0zm3.678711 0l0 -10.84375l1.515625 0l0 10.84375l-1.515625 0zm7.094574 0.140625q-1.1875 0 -2.109375 -0.5q-0.90625 -0.5 -1.421875 -1.375q-0.515625 -0.890625 -0.515625 -2.03125q0 -0.90625 0.28125 -1.65625q0.296875 -0.75 0.8125 -1.296875q0.53125 -0.546875 1.25 -0.84375q0.734375 -0.3125 1.578125 -0.3125q0.75 0 1.390625 0.296875q0.640625 0.28125 1.109375 0.78125q0.484375 0.5 0.734375 1.1875q0.265625 0.671875 0.25 1.46875l-0.015625 0.65625l-6.28125 0l-0.34375 -1.203125l5.328125 0l-0.21875 0.25l0 -0.359375q-0.046875 -0.484375 -0.328125 -0.859375q-0.28125 -0.375 -0.703125 -0.59375q-0.421875 -0.234375 -0.921875 -0.234375q-0.796875 0 -1.34375 0.3125q-0.53125 0.296875 -0.8125 0.875q-0.28125 0.578125 -0.28125 1.421875q0 0.8125 0.328125 1.40625q0.34375 0.59375 0.953125 0.921875q0.625 0.3125 1.4375 0.3125q0.5625 0 1.046875 -0.1875q0.5 -0.1875 1.078125 -0.6875l0.765625 1.0625q-0.359375 0.359375 -0.875 0.625q-0.5 0.265625 -1.0625 0.421875q-0.5625 0.140625 -1.109375 0.140625zm5.0104675 -0.140625l0 -7.6875l1.515625 0l0 2.40625l-0.140625 -0.578125q0.15625 -0.5625 0.546875 -1.015625q0.390625 -0.453125 0.890625 -0.71875q0.5 -0.265625 1.046875 -0.265625q0.25 0 0.46875 0.046875q0.234375 0.046875 0.375 0.109375l-0.40625 1.640625q-0.171875 -0.078125 -0.390625 -0.125q-0.203125 -0.0625 -0.40625 -0.0625q-0.40625 0 -0.765625 0.15625q-0.359375 0.15625 -0.625 0.4375q-0.265625 0.265625 -0.4375 0.625q-0.15625 0.359375 -0.15625 0.78125l0 4.25l-1.515625 0z" fill-rule="nonzero"/><path fill="#cfe2f3" d="m196.99738 52.666943c0 -7.6103745 6.1694336 -13.779804 13.7798 -13.779804l98.04671 0c3.6546326 0 7.1595764 1.4517975 9.743774 4.0360107c2.5842285 2.584217 4.0360107 6.089161 4.0360107 9.7437935l0 55.117558c0 7.6103745 -6.1694336 13.779808 -13.779785 13.779808l-98.04671 0c-7.610367 0 -13.7798 -6.1694336 -13.7798 -13.779808z" fill-rule="evenodd"/><path stroke="#000000" stroke-width="1.0" stroke-linejoin="round" stroke-linecap="butt" d="m196.99738 52.666943c0 -7.6103745 6.1694336 -13.779804 13.7798 -13.779804l98.04671 0c3.6546326 0 7.1595764 1.4517975 9.743774 4.0360107c2.5842285 2.584217 4.0360107 6.089161 4.0360107 9.7437935l0 55.117558c0 7.6103745 -6.1694336 13.779808 -13.779785 13.779808l-98.04671 0c-7.610367 0 -13.7798 -6.1694336 -13.7798 -13.779808z" fill-rule="evenodd"/><path fill="#000000" d="m237.82367 75.42572l0 -13.999996l2.171875 0l0 11.921871l6.5625 0l0 2.078125l-8.734375 0zm15.111252 0.203125q-1.296875 0 -2.375 -0.71875q-1.0625 -0.71875 -1.703125 -1.953125q-0.640625 -1.25 -0.640625 -2.8125q0 -1.578125 0.640625 -2.796875q0.65625 -1.234375 1.765625 -1.9375q1.109375 -0.703125 2.484375 -0.703125q0.828125 0 1.5 0.25q0.6875 0.234375 1.1875 0.671875q0.51560974 0.421875 0.84373474 0.984375q0.328125 0.546875 0.40625 1.1875l-0.453125 -0.15625l0 -2.71875l2.078125 0l0 10.5l-2.078125 0l0 -2.5l0.484375 -0.140625q-0.125 0.546875 -0.5 1.0625q-0.359375 0.5 -0.93748474 0.90625q-0.5625 0.390625 -1.265625 0.640625q-0.6875 0.234375 -1.4375 0.234375zm0.53125 -1.90625q0.9375 0 1.65625 -0.453125q0.734375 -0.46875 1.1406097 -1.265625q0.40625 -0.8125 0.40625 -1.859375q0 -1.015625 -0.40625 -1.8125q-0.40623474 -0.8125 -1.1406097 -1.265625q-0.71875 -0.453125 -1.65625 -0.453125q-0.921875 0 -1.625 0.453125q-0.703125 0.453125 -1.125 1.265625q-0.40625 0.796875 -0.40625 1.8125q0 1.046875 0.40625 1.859375q0.421875 0.796875 1.125 1.265625q0.703125 0.453125 1.625 0.453125zm8.081863 1.703125l0 -10.5l2.0625 0l0 2.15625l-0.359375 0.25q0.203125 -0.703125 0.78125 -1.296875q0.578125 -0.59375 1.375 -0.953125q0.796875 -0.375 1.640625 -0.375q1.203125 0 2.0 0.46875q0.796875 0.46875 1.203125 1.4375q0.40625 0.953125 0.40625 2.40625l0 6.40625l-2.0625 0l0 -6.265625q0 -0.890625 -0.25 -1.484375q-0.234375 -0.59375 -0.734375 -0.859375q-0.5 -0.265625 -1.234375 -0.234375q-0.609375 0 -1.109375 0.203125q-0.5 0.1875 -0.875 0.53125q-0.359375 0.328125 -0.578125 0.78125q-0.203125 0.453125 -0.203125 0.96875l0 6.359375l-1.015625 0q-0.265625 0 -0.53125 0q-0.25 0 -0.515625 0zm16.806244 0.203125q-1.625 0 -2.875 -0.6875q-1.25 -0.703125 -1.96875 -1.890625q-0.703125 -1.203125 -0.703125 -2.765625q0 -1.234375 0.390625 -2.25q0.40625 -1.03125 1.109375 -1.78125q0.71875 -0.75 1.703125 -1.15625q1.0 -0.40625 2.15625 -0.40625q1.03125 0 1.90625 0.390625q0.875 0.390625 1.515625 1.078125q0.65625 0.671875 1.0 1.609375q0.359375 0.921875 0.34375 2.015625l-0.015625 0.875l-8.59375 0l-0.453125 -1.640625l7.265625 0l-0.3125 0.34375l0 -0.484375q-0.046875 -0.65625 -0.4375 -1.171875q-0.375 -0.515625 -0.953125 -0.8125q-0.578125 -0.3125 -1.265625 -0.3125q-1.078125 0 -1.828125 0.421875q-0.734375 0.40625 -1.109375 1.203125q-0.375 0.78125 -0.375 1.9375q0 1.09375 0.453125 1.90625q0.46875 0.8125 1.296875 1.25q0.84375 0.4375 1.953125 0.4375q0.765625 0 1.4375 -0.25q0.671875 -0.265625 1.453125 -0.9375l1.046875 1.453125q-0.484375 0.484375 -1.171875 0.84375q-0.6875 0.359375 -1.46875 0.578125q-0.765625 0.203125 -1.5 0.203125z" fill-rule="nonzero"/><path fill="#000000" d="m218.40869 99.42572l0 -11.6875q0 -0.890625 0.390625 -1.59375q0.40625 -0.703125 1.109375 -1.09375q0.703125 -0.40625 1.625 -0.40625q0.640625 0 1.1875 0.25q0.5625 0.234375 0.90625 0.625l-0.703125 1.59375q-0.25 -0.25 -0.5625 -0.390625q-0.3125 -0.15625 -0.59375 -0.15625q-0.421875 0 -0.71875 0.140625q-0.28125 0.125 -0.421875 0.390625q-0.140625 0.265625 -0.140625 0.640625l0 11.6875l-1.03125 0q-0.265625 0 -0.53125 0q-0.25 0 -0.515625 0zm-1.671875 -8.421875l0 -1.890625l6.234375 0l0 1.890625l-6.234375 0zm12.709991 8.625q-1.53125 0 -2.75 -0.703125q-1.203125 -0.71875 -1.90625 -1.953125q-0.703125 -1.234375 -0.703125 -2.8125q0 -1.578125 0.703125 -2.796875q0.703125 -1.234375 1.90625 -1.9375q1.21875 -0.71875 2.75 -0.71875q1.53125 0 2.734375 0.71875q1.203125 0.703125 1.90625 1.9375q0.703125 1.21875 0.703125 2.796875q0 1.578125 -0.703125 2.8125q-0.703125 1.234375 -1.90625 1.953125q-1.203125 0.703125 -2.734375 0.703125zm0 -1.890625q0.9375 0 1.671875 -0.46875q0.75 -0.46875 1.171875 -1.265625q0.421875 -0.8125 0.40625 -1.84375q0.015625 -1.03125 -0.40625 -1.84375q-0.421875 -0.8125 -1.171875 -1.265625q-0.734375 -0.46875 -1.671875 -0.46875q-0.9375 0 -1.6875 0.46875q-0.75 0.46875 -1.171875 1.28125q-0.421875 0.8125 -0.390625 1.828125q-0.03125 1.03125 0.390625 1.84375q0.421875 0.796875 1.171875 1.265625q0.75 0.46875 1.6875 0.46875zm7.628113 1.6875l0 -14.796875l2.0625 0l0 14.796875l-2.0625 0zm5.019989 0l0 -14.796875l2.0625 0l0 14.796875l-2.0625 0zm9.491867 0.203125q-1.53125 0 -2.75 -0.703125q-1.203125 -0.71875 -1.90625 -1.953125q-0.703125 -1.234375 -0.703125 -2.8125q0 -1.578125 0.703125 -2.796875q0.703125 -1.234375 1.90625 -1.9375q1.21875 -0.71875 2.75 -0.71875q1.53125 0 2.734375 0.71875q1.203125 0.703125 1.9062653 1.9375q0.703125 1.21875 0.703125 2.796875q0 1.578125 -0.703125 2.8125q-0.70314026 1.234375 -1.9062653 1.953125q-1.203125 0.703125 -2.734375 0.703125zm0 -1.890625q0.9375 0 1.671875 -0.46875q0.75 -0.46875 1.171875 -1.265625q0.421875 -0.8125 0.40625 -1.84375q0.015625 -1.03125 -0.40625 -1.84375q-0.421875 -0.8125 -1.171875 -1.265625q-0.734375 -0.46875 -1.671875 -0.46875q-0.9375 0 -1.6875 0.46875q-0.75 0.46875 -1.171875 1.28125q-0.421875 0.8125 -0.390625 1.828125q-0.03125 1.03125 0.390625 1.84375q0.421875 0.796875 1.171875 1.265625q0.75 0.46875 1.6875 0.46875zm9.759384 1.6875l-3.578125 -10.5l2.078125 -0.015625l2.5625 7.859375l-0.453125 -0.046875l2.78125 -6.140625l1.234375 0l2.796875 6.15625l-0.53125 0.046875l2.578125 -7.859375l2.078125 0l-3.546875 10.5l-1.421875 0l-2.90625 -6.6875l0.453125 0.0625l-2.71875 6.625l-1.40625 0zm13.7655945 0l0 -10.5l2.0625 0l0 10.5l-2.0625 0zm1.0 -12.8125q-0.65625 0 -1.015625 -0.34375q-0.359375 -0.34375 -0.359375 -0.96875q0 -0.578125 0.359375 -0.9375q0.375 -0.359375 1.015625 -0.359375q0.65625 0 1.015625 0.34375q0.359375 0.34375 0.359375 0.953125q0 0.578125 -0.375 0.953125q-0.359375 0.359375 -1.0 0.359375zm4.2162476 12.8125l0 -10.5l2.0625 0l0 2.15625l-0.359375 0.25q0.203125 -0.703125 0.78125 -1.296875q0.578125 -0.59375 1.375 -0.953125q0.796875 -0.375 1.640625 -0.375q1.203125 0 2.0 0.46875q0.796875 0.46875 1.203125 1.4375q0.40625 0.953125 0.40625 2.40625l0 6.40625l-2.0625 0l0 -6.265625q0 -0.890625 -0.25 -1.484375q-0.234375 -0.59375 -0.734375 -0.859375q-0.5 -0.265625 -1.234375 -0.234375q-0.609375 0 -1.109375 0.203125q-0.5 0.1875 -0.875 0.53125q-0.359375 0.328125 -0.578125 0.78125q-0.203125 0.453125 -0.203125 0.96875l0 6.359375l-1.015625 0q-0.265625 0 -0.53125 0q-0.25 0 -0.515625 0zm16.603119 4.59375q-1.125 0 -2.234375 -0.34375q-1.109375 -0.34375 -1.78125 -0.90625l0.75 -1.609375q0.40625 0.3125 0.9375 0.53125q0.546875 0.234375 1.140625 0.359375q0.609375 0.140625 1.1875 0.140625q1.09375 0 1.828125 -0.359375q0.75 -0.359375 1.125 -1.0625q0.390625 -0.703125 0.390625 -1.75l0 -2.015625l0.21875 0.140625q-0.109375 0.625 -0.65625 1.203125q-0.546875 0.5625 -1.375 0.921875q-0.8125 0.359375 -1.671875 0.359375q-1.5 0 -2.671875 -0.703125q-1.171875 -0.71875 -1.859375 -1.953125q-0.671875 -1.234375 -0.671875 -2.8125q0 -1.578125 0.671875 -2.796875q0.671875 -1.234375 1.84375 -1.9375q1.171875 -0.71875 2.625 -0.71875q0.609375 0 1.15625 0.15625q0.5625 0.140625 1.046875 0.421875q0.484375 0.265625 0.859375 0.59375q0.375 0.3125 0.609375 0.671875q0.25 0.359375 0.3125 0.671875l-0.4375 0.15625l0 -2.453125l2.0625 0l0 9.859375q0 1.265625 -0.375 2.234375q-0.375 0.96875 -1.078125 1.640625q-0.6875 0.671875 -1.6875 1.015625q-1.0 0.34375 -2.265625 0.34375zm0.078125 -6.296875q0.984375 0 1.734375 -0.453125q0.765625 -0.46875 1.1875 -1.265625q0.421875 -0.796875 0.421875 -1.84375q0 -1.03125 -0.4375 -1.84375q-0.421875 -0.8125 -1.171875 -1.265625q-0.75 -0.46875 -1.734375 -0.46875q-0.953125 0 -1.703125 0.46875q-0.75 0.46875 -1.1875 1.28125q-0.421875 0.8125 -0.421875 1.828125q0 1.03125 0.421875 1.84375q0.4375 0.796875 1.1875 1.265625q0.75 0.453125 1.703125 0.453125z" fill-rule="nonzero"/><path fill="#cfe2f3" d="m46.212597 212.6512c0 -7.610382 6.16943 -13.779816 13.779804 -13.779816l98.04669 0c3.6546326 0 7.1595764 1.4517975 9.74379 4.0360107c2.5842133 2.5842285 4.0360107 6.0891724 4.0360107 9.743805l0 55.11757c0 7.6103516 -6.1694183 13.779785 -13.7798 13.779785l-98.04669 0c-7.6103745 0 -13.779804 -6.1694336 -13.779804 -13.779785z" fill-rule="evenodd"/><path stroke="#000000" stroke-width="1.0" stroke-linejoin="round" stroke-linecap="butt" d="m46.212597 212.6512c0 -7.610382 6.16943 -13.779816 13.779804 -13.779816l98.04669 0c3.6546326 0 7.1595764 1.4517975 9.74379 4.0360107c2.5842133 2.5842285 4.0360107 6.0891724 4.0360107 9.743805l0 55.11757c0 7.6103516 -6.1694183 13.779785 -13.7798 13.779785l-98.04669 0c-7.6103745 0 -13.779804 -6.1694336 -13.779804 -13.779785z" fill-rule="evenodd"/><path fill="#000000" d="m74.17829 235.6131q-1.46875 0 -2.71875 -0.53125q-1.25 -0.546875 -2.1875 -1.515625q-0.921875 -0.96875 -1.4375 -2.28125q-0.515625 -1.3125 -0.515625 -2.875q0 -1.5625 0.515625 -2.875q0.515625 -1.3125 1.4375 -2.28125q0.9375 -0.96875 2.1875 -1.5q1.25 -0.546875 2.71875 -0.546875q1.484375 0 2.734375 0.546875q1.25 0.53125 2.171875 1.515625q0.9375 0.984375 1.453125 2.296875q0.515625 1.296875 0.515625 2.84375q0 1.546875 -0.515625 2.859375q-0.515625 1.296875 -1.453125 2.28125q-0.921875 0.984375 -2.171875 1.53125q-1.25 0.53125 -2.734375 0.53125zm0 -2.109375q1.03125 0 1.875 -0.375q0.859375 -0.375 1.46875 -1.0625q0.625 -0.703125 0.96875 -1.625q0.359375 -0.9375 0.359375 -2.03125q0 -1.09375 -0.359375 -2.015625q-0.34375 -0.9375 -0.96875 -1.625q-0.609375 -0.703125 -1.46875 -1.078125q-0.84375 -0.375 -1.875 -0.375q-1.015625 0 -1.875 0.375q-0.84375 0.375 -1.46875 1.0625q-0.625 0.671875 -0.96875 1.609375q-0.34375 0.921875 -0.34375 2.046875q0 1.09375 0.34375 2.046875q0.34375 0.9375 0.96875 1.625q0.625 0.671875 1.46875 1.046875q0.859375 0.375 1.875 0.375zm14.780609 2.109375q-0.671875 0 -1.34375 -0.21875q-0.671875 -0.21875 -1.21875 -0.59375q-0.546875 -0.375 -0.921875 -0.8125q-0.375 -0.453125 -0.484375 -0.921875l0.515625 -0.28125l0 2.5625l-2.0625 0l0 -14.734375l2.0625 0l0 6.703125l-0.3125 -0.1875q0.09375 -0.453125 0.421875 -0.875q0.34375 -0.4375 0.875 -0.78125q0.53125 -0.359375 1.15625 -0.5625q0.625 -0.21875 1.265625 -0.21875q1.40625 0 2.5 0.703125q1.109375 0.703125 1.75 1.9375q0.640625 1.21875 0.640625 2.796875q0 1.578125 -0.625 2.828125q-0.625 1.234375 -1.734375 1.953125q-1.09375 0.703125 -2.484375 0.703125zm-0.328125 -1.890625q0.921875 0 1.640625 -0.46875q0.71875 -0.46875 1.125 -1.265625q0.421875 -0.8125 0.421875 -1.859375q0 -1.015625 -0.40625 -1.828125q-0.40625 -0.8125 -1.125 -1.265625q-0.71875 -0.46875 -1.65625 -0.46875q-0.9375 0 -1.671875 0.46875q-0.71875 0.453125 -1.140625 1.265625q-0.40625 0.8125 -0.40625 1.828125q0 1.046875 0.40625 1.859375q0.421875 0.796875 1.140625 1.265625q0.734375 0.46875 1.671875 0.46875zm10.912491 1.890625q-1.3125 0 -2.375 -0.453125q-1.0625 -0.46875 -1.765625 -1.375l1.40625 -1.1875q0.59375 0.6875 1.296875 1.0q0.71875 0.3125 1.625 0.3125q0.359375 0 0.65625 -0.09375q0.3125 -0.09375 0.546875 -0.265625q0.234375 -0.1875 0.34375 -0.4375q0.125 -0.25 0.125 -0.546875q0 -0.515625 -0.375 -0.84375q-0.203125 -0.125 -0.640625 -0.296875q-0.421875 -0.171875 -1.09375 -0.359375q-1.171875 -0.296875 -1.90625 -0.671875q-0.734375 -0.390625 -1.140625 -0.859375q-0.296875 -0.390625 -0.4375 -0.828125q-0.140625 -0.453125 -0.140625 -1.0q0 -0.65625 0.28125 -1.203125q0.296875 -0.546875 0.796875 -0.953125q0.515625 -0.421875 1.203125 -0.640625q0.703125 -0.21875 1.46875 -0.21875q0.75 0 1.46875 0.203125q0.734375 0.203125 1.359375 0.578125q0.625 0.375 1.046875 0.890625l-1.1875 1.3125q-0.375 -0.390625 -0.828125 -0.671875q-0.453125 -0.296875 -0.921875 -0.453125q-0.453125 -0.15625 -0.828125 -0.15625q-0.421875 0 -0.765625 0.078125q-0.34375 0.078125 -0.578125 0.234375q-0.21875 0.15625 -0.34375 0.40625q-0.109375 0.234375 -0.109375 0.53125q0.015625 0.265625 0.125 0.5q0.109375 0.21875 0.3125 0.390625q0.21875 0.15625 0.65625 0.34375q0.4375 0.171875 1.125 0.328125q1.0 0.265625 1.640625 0.578125q0.65625 0.3125 1.03125 0.703125q0.40625 0.375 0.5625 0.875q0.15625 0.5 0.15625 1.125q0 0.90625 -0.515625 1.625q-0.5 0.703125 -1.359375 1.109375q-0.859375 0.390625 -1.921875 0.390625zm7.3768616 -0.203125l0 -13.1875l2.0625 0l0 13.1875l-2.0625 0zm-2.171875 -8.5l0 -2.0l6.671875 0l0 2.0l-6.671875 0zm12.501862 8.703125q-1.296875 0 -2.375 -0.71875q-1.0625 -0.71875 -1.703125 -1.953125q-0.640625 -1.25 -0.640625 -2.8125q0 -1.578125 0.640625 -2.796875q0.65625 -1.234375 1.765625 -1.9375q1.109375 -0.703125 2.484375 -0.703125q0.828125 0 1.5 0.25q0.6875 0.234375 1.1875 0.671875q0.515625 0.421875 0.84375 0.984375q0.328125 0.546875 0.40625 1.1875l-0.453125 -0.15625l0 -2.71875l2.078125 0l0 10.5l-2.078125 0l0 -2.5l0.484375 -0.140625q-0.125 0.546875 -0.5 1.0625q-0.359375 0.5 -0.9375 0.90625q-0.5625 0.390625 -1.265625 0.640625q-0.6875 0.234375 -1.4375 0.234375zm0.53125 -1.90625q0.9375 0 1.65625 -0.453125q0.734375 -0.46875 1.140625 -1.265625q0.40625 -0.8125 0.40625 -1.859375q0 -1.015625 -0.40625 -1.8125q-0.40625 -0.8125 -1.140625 -1.265625q-0.71875 -0.453125 -1.65625 -0.453125q-0.921875 0 -1.625 0.453125q-0.703125 0.453125 -1.125 1.265625q-0.40625 0.796875 -0.40625 1.8125q0 1.046875 0.40625 1.859375q0.421875 0.796875 1.125 1.265625q0.703125 0.453125 1.625 0.453125zm12.550606 1.90625q-1.46875 0 -2.6249924 -0.71875q-1.140625 -0.71875 -1.8125 -1.953125q-0.671875 -1.25 -0.671875 -2.796875q0 -1.53125 0.671875 -2.765625q0.671875 -1.25 1.8125 -1.96875q1.1562424 -0.71875 2.6249924 -0.71875q1.390625 0 2.53125 0.578125q1.15625 0.5625 1.765625 1.546875l-1.140625 1.390625q-0.328125 -0.453125 -0.828125 -0.828125q-0.5 -0.390625 -1.0625 -0.609375q-0.546875 -0.21875 -1.078125 -0.21875q-0.953125 0 -1.703125 0.46875q-0.75 0.46875 -1.1874924 1.296875q-0.4375 0.8125 -0.4375 1.828125q0 1.03125 0.453125 1.84375q0.46874237 0.796875 1.2187424 1.28125q0.765625 0.484375 1.6875 0.484375q0.53125 0 1.046875 -0.171875q0.515625 -0.1875 0.984375 -0.546875q0.484375 -0.359375 0.90625 -0.890625l1.140625 1.40625q-0.640625 0.90625 -1.828125 1.484375q-1.1875 0.578125 -2.46875 0.578125zm6.278122 -0.203125l0 -14.796875l2.0625 0l0 14.796875l-2.0625 0zm9.679367 0.203125q-1.625 0 -2.875 -0.6875q-1.25 -0.703125 -1.96875 -1.890625q-0.703125 -1.203125 -0.703125 -2.765625q0 -1.234375 0.390625 -2.25q0.40625 -1.03125 1.109375 -1.78125q0.71875 -0.75 1.703125 -1.15625q1.0 -0.40625 2.15625 -0.40625q1.03125 0 1.90625 0.390625q0.875 0.390625 1.515625 1.078125q0.65625 0.671875 1.0 1.609375q0.359375 0.921875 0.34375 2.015625l-0.015625 0.875l-8.59375 0l-0.453125 -1.640625l7.265625 0l-0.3125 0.34375l0 -0.484375q-0.046875 -0.65625 -0.4375 -1.171875q-0.375 -0.515625 -0.953125 -0.8125q-0.578125 -0.3125 -1.265625 -0.3125q-1.078125 0 -1.828125 0.421875q-0.734375 0.40625 -1.109375 1.203125q-0.375 0.78125 -0.375 1.9375q0 1.09375 0.453125 1.90625q0.46875 0.8125 1.296875 1.25q0.84375 0.4375 1.953125 0.4375q0.765625 0 1.4375 -0.25q0.671875 -0.265625 1.453125 -0.9375l1.046875 1.453125q-0.484375 0.484375 -1.171875 0.84375q-0.6875 0.359375 -1.46875 0.578125q-0.765625 0.203125 -1.5 0.203125z" fill-rule="nonzero"/><path fill="#000000" d="m68.90829 259.6131q-1.4375 0 -2.5625 -0.703125q-1.125 -0.71875 -1.796875 -1.953125q-0.65625 -1.234375 -0.65625 -2.8125q0 -1.578125 0.640625 -2.796875q0.65625 -1.234375 1.78125 -1.9375q1.125 -0.71875 2.546875 -0.71875q0.78125 0 1.5 0.25q0.734375 0.25 1.3125 0.6875q0.578125 0.421875 0.90625 0.9375q0.328125 0.5 0.328125 1.03125l-0.59375 0.03125l0 -7.015625l2.0625 0l0 14.796875l-2.0625 0l0 -2.5l0.40625 0q0 0.484375 -0.328125 0.953125q-0.3125 0.46875 -0.84375 0.875q-0.53125 0.390625 -1.21875 0.640625q-0.6875 0.234375 -1.421875 0.234375zm0.28125 -1.78125q0.953125 0 1.671875 -0.484375q0.71875 -0.484375 1.125 -1.3125q0.40625 -0.828125 0.40625 -1.890625q0 -1.046875 -0.40625 -1.875q-0.40625 -0.84375 -1.125 -1.3125q-0.71875 -0.484375 -1.671875 -0.484375q-0.9375 0 -1.65625 0.484375q-0.71875 0.46875 -1.125 1.3125q-0.40625 0.828125 -0.40625 1.875q0 1.0625 0.40625 1.890625q0.40625 0.828125 1.125 1.3125q0.71875 0.484375 1.65625 0.484375zm12.929993 1.78125q-1.625 0 -2.875 -0.6875q-1.25 -0.703125 -1.96875 -1.890625q-0.703125 -1.203125 -0.703125 -2.765625q0 -1.234375 0.390625 -2.25q0.40625 -1.03125 1.109375 -1.78125q0.71875 -0.75 1.703125 -1.15625q1.0 -0.40625 2.15625 -0.40625q1.03125 0 1.90625 0.390625q0.875 0.390625 1.515625 1.078125q0.65625 0.671875 1.0 1.609375q0.359375 0.921875 0.34375 2.015625l-0.015625 0.875l-8.59375 0l-0.453125 -1.640625l7.265625 0l-0.3125 0.34375l0 -0.484375q-0.046875 -0.65625 -0.4375 -1.171875q-0.375 -0.515625 -0.953125 -0.8125q-0.578125 -0.3125 -1.265625 -0.3125q-1.078125 0 -1.828125 0.421875q-0.734375 0.40625 -1.109375 1.203125q-0.375 0.78125 -0.375 1.9375q0 1.09375 0.453125 1.90625q0.46875 0.8125 1.296875 1.25q0.84375 0.4375 1.953125 0.4375q0.765625 0 1.4375 -0.25q0.671875 -0.265625 1.453125 -0.9375l1.046875 1.453125q-0.484375 0.484375 -1.171875 0.84375q-0.6875 0.359375 -1.46875 0.578125q-0.765625 0.203125 -1.5 0.203125zm8.110611 -0.203125l0 -13.1875l2.0625 0l0 13.1875l-2.0625 0zm-2.171875 -8.5l0 -2.0l6.671875 0l0 2.0l-6.671875 0zm13.361237 8.703125q-1.625 0 -2.875 -0.6875q-1.25 -0.703125 -1.96875 -1.890625q-0.703125 -1.203125 -0.703125 -2.765625q0 -1.234375 0.390625 -2.25q0.40625 -1.03125 1.109375 -1.78125q0.71875 -0.75 1.703125 -1.15625q1.0 -0.40625 2.15625 -0.40625q1.03125 0 1.90625 0.390625q0.875 0.390625 1.515625 1.078125q0.65625 0.671875 1.0 1.609375q0.359375 0.921875 0.34375 2.015625l-0.015625 0.875l-8.59375 0l-0.453125 -1.640625l7.265625 0l-0.3125 0.34375l0 -0.484375q-0.046875 -0.65625 -0.4375 -1.171875q-0.375 -0.515625 -0.953125 -0.8125q-0.578125 -0.3125 -1.265625 -0.3125q-1.078125 0 -1.828125 0.421875q-0.734375 0.40625 -1.109375 1.203125q-0.375 0.78125 -0.375 1.9375q0 1.09375 0.453125 1.90625q0.46875 0.8125 1.296875 1.25q0.84375 0.4375 1.953125 0.4375q0.765625 0 1.4375 -0.25q0.671875 -0.265625 1.453125 -0.9375l1.046875 1.453125q-0.484375 0.484375 -1.171875 0.84375q-0.6875 0.359375 -1.46875 0.578125q-0.765625 0.203125 -1.5 0.203125zm11.282486 0q-1.46875 0 -2.625 -0.71875q-1.140625 -0.71875 -1.8125 -1.953125q-0.671875 -1.25 -0.671875 -2.796875q0 -1.53125 0.671875 -2.765625q0.671875 -1.25 1.8125 -1.96875q1.15625 -0.71875 2.625 -0.71875q1.390625 0 2.53125 0.578125q1.15625 0.5625 1.765625 1.546875l-1.140625 1.390625q-0.328125 -0.453125 -0.828125 -0.828125q-0.5 -0.390625 -1.0625 -0.609375q-0.546875 -0.21875 -1.078125 -0.21875q-0.953125 0 -1.703125 0.46875q-0.75 0.46875 -1.1875 1.296875q-0.4375 0.8125 -0.4375 1.828125q0 1.03125 0.453125 1.84375q0.46875 0.796875 1.21875 1.28125q0.765625 0.484375 1.6875 0.484375q0.53125 0 1.046875 -0.171875q0.515625 -0.1875 0.984375 -0.546875q0.484375 -0.359375 0.90625 -0.890625l1.140625 1.40625q-0.640625 0.90625 -1.828125 1.484375q-1.1875 0.578125 -2.46875 0.578125zm7.528122 -0.203125l0 -13.1875l2.0625 0l0 13.1875l-2.0625 0zm-2.171875 -8.5l0 -2.0l6.671875 0l0 2.0l-6.671875 0zm8.898743 8.5l0 -10.5l2.0624924 0l0 10.5l-2.0624924 0zm1.0 -12.8125q-0.65625 0 -1.015625 -0.34375q-0.359375 -0.34375 -0.359375 -0.96875q0 -0.578125 0.359375 -0.9375q0.375 -0.359375 1.015625 -0.359375q0.6562424 0 1.0156174 0.34375q0.359375 0.34375 0.359375 0.953125q0 0.578125 -0.375 0.953125q-0.359375 0.359375 -0.9999924 0.359375zm8.93499 13.015625q-1.53125 0 -2.75 -0.703125q-1.203125 -0.71875 -1.90625 -1.953125q-0.703125 -1.234375 -0.703125 -2.8125q0 -1.578125 0.703125 -2.796875q0.703125 -1.234375 1.90625 -1.9375q1.21875 -0.71875 2.75 -0.71875q1.53125 0 2.734375 0.71875q1.203125 0.703125 1.90625 1.9375q0.703125 1.21875 0.703125 2.796875q0 1.578125 -0.703125 2.8125q-0.703125 1.234375 -1.90625 1.953125q-1.203125 0.703125 -2.734375 0.703125zm0 -1.890625q0.9375 0 1.671875 -0.46875q0.75 -0.46875 1.171875 -1.265625q0.421875 -0.8125 0.40625 -1.84375q0.015625 -1.03125 -0.40625 -1.84375q-0.421875 -0.8125 -1.171875 -1.265625q-0.734375 -0.46875 -1.671875 -0.46875q-0.9375 0 -1.6875 0.46875q-0.75 0.46875 -1.171875 1.28125q-0.421875 0.8125 -0.390625 1.828125q-0.03125 1.03125 0.390625 1.84375q0.421875 0.796875 1.171875 1.265625q0.75 0.46875 1.6875 0.46875zm7.581238 1.6875l0 -10.5l2.0625 0l0 2.15625l-0.359375 0.25q0.203125 -0.703125 0.78125 -1.296875q0.578125 -0.59375 1.375 -0.953125q0.796875 -0.375 1.640625 -0.375q1.203125 0 2.0 0.46875q0.796875 0.46875 1.203125 1.4375q0.40625 0.953125 0.40625 2.40625l0 6.40625l-2.0625 0l0 -6.265625q0 -0.890625 -0.25 -1.484375q-0.234375 -0.59375 -0.734375 -0.859375q-0.5 -0.265625 -1.234375 -0.234375q-0.609375 0 -1.109375 0.203125q-0.5 0.1875 -0.875 0.53125q-0.359375 0.328125 -0.578125 0.78125q-0.203125 0.453125 -0.203125 0.96875l0 6.359375l-1.015625 0q-0.265625 0 -0.53125 0q-0.25 0 -0.515625 0z" fill-rule="nonzero"/><path fill="#cfe2f3" d="m378.91077 363.04752c0 -7.610382 6.1694336 -13.779785 13.779785 -13.779785l98.04669 0c3.6546326 0 7.1595764 1.4517822 9.743805 4.0360107c2.5842285 2.584198 4.0360107 6.089142 4.0360107 9.743774l0 55.117554c0 7.610382 -6.1694336 13.779816 -13.779816 13.779816l-98.04669 0c-7.6103516 0 -13.779785 -6.1694336 -13.779785 -13.779816z" fill-rule="evenodd"/><path stroke="#000000" stroke-width="1.0" stroke-linejoin="round" stroke-linecap="butt" d="m378.91077 363.04752c0 -7.610382 6.1694336 -13.779785 13.779785 -13.779785l98.04669 0c3.6546326 0 7.1595764 1.4517822 9.743805 4.0360107c2.5842285 2.584198 4.0360107 6.089142 4.0360107 9.743774l0 55.117554c0 7.610382 -6.1694336 13.779816 -13.779816 13.779816l-98.04669 0c-7.6103516 0 -13.779785 -6.1694336 -13.779785 -13.779816z" fill-rule="evenodd"/><path fill="#000000" d="m407.2727 398.00943q-1.515625 0 -2.84375 -0.546875q-1.3125 -0.5625 -2.3125 -1.53125q-1.0 -0.984375 -1.5625 -2.296875q-0.546875 -1.3125 -0.546875 -2.828125q0 -1.5 0.546875 -2.796875q0.5625 -1.296875 1.546875 -2.265625q1.0 -0.984375 2.3125 -1.515625q1.328125 -0.546875 2.84375 -0.546875q1.0625 0 2.0625 0.3125q1.015625 0.296875 1.828125 0.84375q0.828125 0.53125 1.34375 1.234375l-1.390625 1.453125q-0.609375 -0.578125 -1.234375 -0.953125q-0.625 -0.390625 -1.296875 -0.578125q-0.65625 -0.203125 -1.3125 -0.203125q-1.078125 0 -2.0 0.375q-0.90625 0.375 -1.59375 1.0625q-0.6875 0.671875 -1.078125 1.59375q-0.375 0.90625 -0.375 1.984375q0 1.046875 0.390625 1.984375q0.40625 0.921875 1.109375 1.625q0.71875 0.6875 1.640625 1.09375q0.9375 0.390625 1.984375 0.390625q0.78125 0 1.46875 -0.21875q0.703125 -0.234375 1.25 -0.65625q0.546875 -0.421875 0.84375 -0.96875q0.296875 -0.546875 0.296875 -1.171875l0 -0.390625l0.296875 0.265625l-4.28125 0l0 -2.140625l6.203125 0q0.046875 0.234375 0.0625 0.4375q0.015625 0.203125 0.015625 0.40625q0.015625 0.1875 0.015625 0.359375q0 1.390625 -0.484375 2.515625q-0.46875 1.125 -1.328125 1.953125q-0.84375 0.8125 -1.96875 1.265625q-1.125 0.453125 -2.453125 0.453125zm13.444977 0q-1.625 0 -2.875 -0.6875q-1.25 -0.703125 -1.96875 -1.890625q-0.703125 -1.203125 -0.703125 -2.765625q0 -1.234375 0.390625 -2.25q0.40625 -1.03125 1.109375 -1.78125q0.71875 -0.75 1.703125 -1.15625q1.0 -0.40625 2.15625 -0.40625q1.03125 0 1.90625 0.390625q0.875 0.390625 1.515625 1.078125q0.65625 0.671875 1.0 1.609375q0.359375 0.921875 0.34375 2.015625l-0.015625 0.875l-8.59375 0l-0.453125 -1.640625l7.265625 0l-0.3125 0.34375l0 -0.484375q-0.046875 -0.65625 -0.4375 -1.171875q-0.375 -0.515625 -0.953125 -0.8125q-0.578125 -0.3125 -1.265625 -0.3125q-1.078125 0 -1.828125 0.421875q-0.734375 0.40625 -1.109375 1.203125q-0.375 0.78125 -0.375 1.9375q0 1.09375 0.453125 1.90625q0.46875 0.8125 1.296875 1.25q0.84375 0.4375 1.953125 0.4375q0.765625 0 1.4375 -0.25q0.671875 -0.265625 1.453125 -0.9375l1.046875 1.453125q-0.484375 0.484375 -1.171875 0.84375q-0.6875 0.359375 -1.46875 0.578125q-0.765625 0.203125 -1.5 0.203125zm10.313751 0q-1.3125 0 -2.375 -0.453125q-1.0625 -0.46875 -1.765625 -1.375l1.40625 -1.1875q0.59375 0.6875 1.296875 1.0q0.71875 0.3125 1.625 0.3125q0.359375 0 0.65625 -0.09375q0.3125 -0.09375 0.546875 -0.265625q0.234375 -0.1875 0.34375 -0.4375q0.125 -0.25 0.125 -0.546875q0 -0.515625 -0.375 -0.84375q-0.203125 -0.125 -0.640625 -0.296875q-0.421875 -0.171875 -1.09375 -0.359375q-1.171875 -0.296875 -1.90625 -0.671875q-0.734375 -0.390625 -1.140625 -0.859375q-0.296875 -0.390625 -0.4375 -0.828125q-0.140625 -0.453125 -0.140625 -1.0q0 -0.65625 0.28125 -1.203125q0.296875 -0.546875 0.796875 -0.953125q0.515625 -0.421875 1.203125 -0.640625q0.703125 -0.21875 1.46875 -0.21875q0.75 0 1.46875 0.203125q0.734375 0.203125 1.359375 0.578125q0.625 0.375 1.046875 0.890625l-1.1875 1.3125q-0.375 -0.390625 -0.828125 -0.671875q-0.453125 -0.296875 -0.921875 -0.453125q-0.453125 -0.15625 -0.828125 -0.15625q-0.421875 0 -0.765625 0.078125q-0.34375 0.078125 -0.578125 0.234375q-0.21875 0.15625 -0.34375 0.40625q-0.109375 0.234375 -0.109375 0.53125q0.015625 0.265625 0.125 0.5q0.109375 0.21875 0.3125 0.390625q0.21875 0.15625 0.65625 0.34375q0.4375 0.171875 1.125 0.328125q1.0 0.265625 1.640625 0.578125q0.65625 0.3125 1.03125 0.703125q0.40625 0.375 0.5625 0.875q0.15625 0.5 0.15625 1.125q0 0.90625 -0.515625 1.625q-0.5 0.703125 -1.359375 1.109375q-0.859375 0.390625 -1.921875 0.390625zm7.3768616 -0.203125l0 -13.1875l2.0625 0l0 13.1875l-2.0625 0zm-2.171875 -8.5l0 -2.0l6.671875 0l0 2.0l-6.671875 0zm12.242493 8.703125q-1.125 0 -1.953125 -0.515625q-0.828125 -0.53125 -1.28125 -1.46875q-0.453125 -0.9375 -0.453125 -2.234375l0 -6.484375l2.0625 0l0 5.921875q0 0.921875 0.28125 1.59375q0.296875 0.671875 0.84375 1.03125q0.5625 0.359375 1.328125 0.359375q0.59375 0 1.0625 -0.1875q0.484375 -0.203125 0.828125 -0.53125q0.359375 -0.34375 0.546875 -0.828125q0.203125 -0.484375 0.203125 -1.046875l0 -6.3125l2.0625 0l0 10.5l-2.0625 0l0 -2.203125l0.359375 -0.234375q-0.234375 0.734375 -0.8125 1.34375q-0.5625 0.59375 -1.34375 0.953125q-0.78125 0.34375 -1.671875 0.34375zm8.412476 -0.203125l0 -10.5l2.078125 0l0 3.296875l-0.203125 -0.796875q0.234375 -0.765625 0.75 -1.375q0.53125 -0.625 1.21875 -0.984375q0.703125 -0.359375 1.4375 -0.359375q0.34375 0 0.65625 0.0625q0.3125 0.0625 0.484375 0.140625l-0.546875 2.234375q-0.234375 -0.09375 -0.53125 -0.15625q-0.28125 -0.078125 -0.5625 -0.078125q-0.53125 0 -1.03125 0.21875q-0.484375 0.203125 -0.859375 0.578125q-0.375 0.359375 -0.59375 0.859375q-0.21875 0.484375 -0.21875 1.0625l0 5.796875l-2.078125 0zm12.526245 0.203125q-1.625 0 -2.875 -0.6875q-1.25 -0.703125 -1.96875 -1.890625q-0.703125 -1.203125 -0.703125 -2.765625q0 -1.234375 0.390625 -2.25q0.40625 -1.03125 1.109375 -1.78125q0.71875 -0.75 1.703125 -1.15625q1.0 -0.40625 2.15625 -0.40625q1.03125 0 1.90625 0.390625q0.875 0.390625 1.515625 1.078125q0.65625 0.671875 1.0 1.609375q0.359375 0.921875 0.34375 2.015625l-0.015625 0.875l-8.59375 0l-0.453125 -1.640625l7.265625 0l-0.3125 0.34375l0 -0.484375q-0.046875 -0.65625 -0.4375 -1.171875q-0.375 -0.515625 -0.953125 -0.8125q-0.578125 -0.3125 -1.265625 -0.3125q-1.078125 0 -1.828125 0.421875q-0.734375 0.40625 -1.109375 1.203125q-0.375 0.78125 -0.375 1.9375q0 1.09375 0.453125 1.90625q0.46875 0.8125 1.296875 1.25q0.84375 0.4375 1.953125 0.4375q0.765625 0 1.4375 -0.25q0.671875 -0.265625 1.453125 -0.9375l1.046875 1.453125q-0.484375 0.484375 -1.171875 0.84375q-0.6875 0.359375 -1.46875 0.578125q-0.765625 0.203125 -1.5 0.203125zm10.313751 0q-1.3125 0 -2.375 -0.453125q-1.0625 -0.46875 -1.765625 -1.375l1.40625 -1.1875q0.59375 0.6875 1.296875 1.0q0.71875 0.3125 1.625 0.3125q0.359375 0 0.65625 -0.09375q0.3125 -0.09375 0.546875 -0.265625q0.234375 -0.1875 0.34375 -0.4375q0.125 -0.25 0.125 -0.546875q0 -0.515625 -0.375 -0.84375q-0.203125 -0.125 -0.640625 -0.296875q-0.421875 -0.171875 -1.09375 -0.359375q-1.171875 -0.296875 -1.90625 -0.671875q-0.734375 -0.390625 -1.140625 -0.859375q-0.296875 -0.390625 -0.4375 -0.828125q-0.140625 -0.453125 -0.140625 -1.0q0 -0.65625 0.28125 -1.203125q0.296875 -0.546875 0.796875 -0.953125q0.515625 -0.421875 1.203125 -0.640625q0.703125 -0.21875 1.46875 -0.21875q0.75 0 1.46875 0.203125q0.734375 0.203125 1.359375 0.578125q0.625 0.375 1.046875 0.890625l-1.1875 1.3125q-0.375 -0.390625 -0.828125 -0.671875q-0.453125 -0.296875 -0.921875 -0.453125q-0.453125 -0.15625 -0.828125 -0.15625q-0.421875 0 -0.765625 0.078125q-0.34375 0.078125 -0.578125 0.234375q-0.21875 0.15625 -0.34375 0.40625q-0.109375 0.234375 -0.109375 0.53125q0.015625 0.265625 0.125 0.5q0.109375 0.21875 0.3125 0.390625q0.21875 0.15625 0.65625 0.34375q0.4375 0.171875 1.125 0.328125q1.0 0.265625 1.640625 0.578125q0.65625 0.3125 1.03125 0.703125q0.40625 0.375 0.5625 0.875q0.15625 0.5 0.15625 1.125q0 0.90625 -0.515625 1.625q-0.5 0.703125 -1.359375 1.109375q-0.859375 0.390625 -1.921875 0.390625z" fill-rule="nonzero"/><path fill="#cfe2f3" d="m300.83466 289.2047c0 -19.273407 15.863922 -34.89763 35.433075 -34.89763c9.39743 0 18.409973 3.676712 25.054962 10.221298c6.644989 6.5445557 10.378082 15.420929 10.378082 24.67633c0 19.273438 -15.863922 34.897644 -35.433044 34.897644c-19.569153 0 -35.433075 -15.624207 -35.433075 -34.897644z" fill-rule="evenodd"/><path stroke="#000000" stroke-width="1.0" stroke-linejoin="round" stroke-linecap="butt" d="m300.83466 289.2047c0 -19.273407 15.863922 -34.89763 35.433075 -34.89763c9.39743 0 18.409973 3.676712 25.054962 10.221298c6.644989 6.5445557 10.378082 15.420929 10.378082 24.67633c0 19.273438 -15.863922 34.897644 -35.433044 34.897644c-19.569153 0 -35.433075 -15.624207 -35.433075 -34.897644z" fill-rule="evenodd"/><path fill="#000000" d="m325.68652 293.0541q-0.8125 0 -1.515625 -0.296875q-0.703125 -0.296875 -1.234375 -0.8125q-0.53125 -0.53125 -0.828125 -1.21875q-0.28125 -0.703125 -0.28125 -1.515625q0 -0.796875 0.28125 -1.484375q0.296875 -0.703125 0.828125 -1.21875q0.53125 -0.515625 1.234375 -0.796875q0.703125 -0.28125 1.515625 -0.28125q0.5625 0 1.09375 0.15625q0.546875 0.15625 0.984375 0.453125q0.4375 0.28125 0.703125 0.65625l-0.734375 0.765625q-0.328125 -0.296875 -0.671875 -0.5q-0.328125 -0.203125 -0.6875 -0.3125q-0.34375 -0.109375 -0.6875 -0.109375q-0.578125 0 -1.0625 0.203125q-0.484375 0.203125 -0.859375 0.5625q-0.359375 0.359375 -0.5625 0.84375q-0.203125 0.484375 -0.203125 1.0625q0 0.5625 0.203125 1.0625q0.21875 0.484375 0.59375 0.859375q0.375 0.375 0.875 0.59375q0.5 0.203125 1.046875 0.203125q0.421875 0 0.796875 -0.109375q0.375 -0.125 0.65625 -0.34375q0.296875 -0.234375 0.453125 -0.53125q0.15625 -0.296875 0.15625 -0.625l0 -0.203125l0.15625 0.140625l-2.28125 0l0 -1.140625l3.3125 0q0.015625 0.125 0.015625 0.234375q0.015625 0.109375 0.015625 0.21875q0.015625 0.09375 0.015625 0.1875q0 0.734375 -0.265625 1.34375q-0.25 0.59375 -0.703125 1.03125q-0.453125 0.4375 -1.0625 0.6875q-0.59375 0.234375 -1.296875 0.234375zm4.834656 -0.109375l0 -7.453125l1.03125 0l4.5625 6.09375l-0.171875 0.109375q-0.046875 -0.28125 -0.078125 -0.59375q-0.03125 -0.3125 -0.0625 -0.65625q-0.015625 -0.359375 -0.03125 -0.765625q-0.015625 -0.40625 -0.03125 -0.84375q-0.015625 -0.4375 -0.015625 -0.90625l0 -2.4375l1.15625 0l0 7.453125l-1.0625 0l-4.484375 -5.875l0.125 -0.15625q0.046875 0.65625 0.078125 1.109375q0.046875 0.453125 0.0625 0.765625q0.03125 0.3125 0.046875 0.515625q0.015625 0.1875 0.015625 0.3125q0 0.125 0 0.234375l0 3.09375l-1.140625 0zm10.747345 0.109375q-0.609375 0 -1.125 -0.15625q-0.515625 -0.171875 -0.9375 -0.484375q-0.421875 -0.328125 -0.75 -0.8125l0.796875 -0.90625q0.515625 0.75 0.984375 1.046875q0.484375 0.28125 1.15625 0.28125q0.40625 0 0.734375 -0.125q0.328125 -0.140625 0.515625 -0.359375q0.1875 -0.21875 0.1875 -0.515625q0 -0.1875 -0.0625 -0.359375q-0.0625 -0.171875 -0.203125 -0.3125q-0.125 -0.140625 -0.328125 -0.25q-0.203125 -0.125 -0.484375 -0.203125q-0.28125 -0.09375 -0.640625 -0.15625q-0.578125 -0.125 -1.0 -0.3125q-0.421875 -0.1875 -0.71875 -0.46875q-0.28125 -0.296875 -0.421875 -0.65625q-0.140625 -0.375 -0.140625 -0.84375q0 -0.4375 0.1875 -0.8125q0.203125 -0.390625 0.546875 -0.671875q0.359375 -0.28125 0.828125 -0.4375q0.46875 -0.15625 1.0 -0.15625q0.578125 0 1.0625 0.15625q0.484375 0.140625 0.84375 0.4375q0.375 0.28125 0.625 0.71875l-0.8125 0.796875q-0.21875 -0.359375 -0.484375 -0.59375q-0.265625 -0.234375 -0.59375 -0.359375q-0.3125 -0.125 -0.671875 -0.125q-0.40625 0 -0.71875 0.125q-0.3125 0.125 -0.484375 0.359375q-0.171875 0.234375 -0.171875 0.53125q0 0.234375 0.078125 0.421875q0.09375 0.1875 0.265625 0.328125q0.171875 0.140625 0.46875 0.25q0.296875 0.109375 0.71875 0.203125q0.578125 0.125 1.03125 0.328125q0.46875 0.1875 0.78125 0.453125q0.328125 0.265625 0.484375 0.609375q0.171875 0.328125 0.171875 0.703125q0 0.71875 -0.328125 1.25q-0.328125 0.515625 -0.9375 0.796875q-0.609375 0.28125 -1.453125 0.28125zm6.6495667 0q-0.609375 0 -1.125 -0.15625q-0.515625 -0.171875 -0.9375 -0.484375q-0.421875 -0.328125 -0.75 -0.8125l0.796875 -0.90625q0.515625 0.75 0.984375 1.046875q0.484375 0.28125 1.15625 0.28125q0.40625 0 0.734375 -0.125q0.328125 -0.140625 0.515625 -0.359375q0.1875 -0.21875 0.1875 -0.515625q0 -0.1875 -0.0625 -0.359375q-0.0625 -0.171875 -0.203125 -0.3125q-0.125 -0.140625 -0.328125 -0.25q-0.203125 -0.125 -0.484375 -0.203125q-0.28125 -0.09375 -0.640625 -0.15625q-0.578125 -0.125 -1.0 -0.3125q-0.421875 -0.1875 -0.71875 -0.46875q-0.28125 -0.296875 -0.421875 -0.65625q-0.140625 -0.375 -0.140625 -0.84375q0 -0.4375 0.1875 -0.8125q0.203125 -0.390625 0.546875 -0.671875q0.359375 -0.28125 0.828125 -0.4375q0.46875 -0.15625 1.0 -0.15625q0.578125 0 1.0625 0.15625q0.484375 0.140625 0.84375 0.4375q0.375 0.28125 0.625 0.71875l-0.8125 0.796875q-0.21875 -0.359375 -0.484375 -0.59375q-0.265625 -0.234375 -0.59375 -0.359375q-0.3125 -0.125 -0.671875 -0.125q-0.40625 0 -0.71875 0.125q-0.3125 0.125 -0.484375 0.359375q-0.171875 0.234375 -0.171875 0.53125q0 0.234375 0.078125 0.421875q0.09375 0.1875 0.265625 0.328125q0.171875 0.140625 0.46875 0.25q0.296875 0.109375 0.71875 0.203125q0.578125 0.125 1.03125 0.328125q0.46875 0.1875 0.78125 0.453125q0.328125 0.265625 0.484375 0.609375q0.171875 0.328125 0.171875 0.703125q0 0.71875 -0.328125 1.25q-0.328125 0.515625 -0.9375 0.796875q-0.609375 0.28125 -1.453125 0.28125z" fill-rule="nonzero"/><path fill="#cfe2f3" d="m209.48163 235.4147c0 -19.273438 15.863922 -34.897644 35.433075 -34.897644c9.39743 0 18.409973 3.676712 25.054962 10.221283c6.644989 6.544571 10.378113 15.420929 10.378113 24.676361c0 19.273422 -15.863922 34.897644 -35.433075 34.897644c-19.569153 0 -35.433075 -15.624222 -35.433075 -34.897644z" fill-rule="evenodd"/><path stroke="#000000" stroke-width="1.0" stroke-linejoin="round" stroke-linecap="butt" d="m209.48163 235.4147c0 -19.273438 15.863922 -34.897644 35.433075 -34.897644c9.39743 0 18.409973 3.676712 25.054962 10.221283c6.644989 6.544571 10.378113 15.420929 10.378113 24.676361c0 19.273422 -15.863922 34.897644 -35.433075 34.897644c-19.569153 0 -35.433075 -15.624222 -35.433075 -34.897644z" fill-rule="evenodd"/><path fill="#000000" d="m231.84444 238.8747l0 -6.53125l1.0 0l0 5.5625l3.0625 0l0 0.96875l-4.0625 0zm5.493805 0l0 -4.890625l0.96875 0l0 4.890625l-0.96875 0zm0.46875 -5.984375q-0.3125 0 -0.484375 -0.15625q-0.15625 -0.15625 -0.15625 -0.4375q0 -0.28125 0.171875 -0.4375q0.171875 -0.171875 0.46875 -0.171875q0.3125 0 0.46875 0.15625q0.171875 0.15625 0.171875 0.453125q0 0.265625 -0.171875 0.4375q-0.171875 0.15625 -0.46875 0.15625zm2.218216 5.984375l0 -6.53125l2.546875 0q0.703125 0 1.265625 0.234375q0.5625 0.234375 0.953125 0.671875q0.40625 0.4375 0.625 1.03125q0.21875 0.59375 0.21875 1.328125q0 0.734375 -0.21875 1.34375q-0.21875 0.59375 -0.609375 1.03125q-0.390625 0.421875 -0.96875 0.65625q-0.5625 0.234375 -1.265625 0.234375l-2.546875 0zm1.0 -0.875l-0.03125 -0.09375l1.53125 0q0.5 0 0.875 -0.15625q0.390625 -0.15625 0.65625 -0.453125q0.265625 -0.296875 0.40625 -0.71875q0.140625 -0.4375 0.140625 -0.96875q0 -0.53125 -0.140625 -0.953125q-0.140625 -0.421875 -0.40625 -0.71875q-0.265625 -0.3125 -0.65625 -0.46875q-0.375 -0.15625 -0.875 -0.15625l-1.5625 0l0.0625 -0.078125l0 4.765625zm5.1032715 0.875l2.53125 -6.53125l1.015625 0l2.5156097 6.53125l-1.0781097 0l-1.484375 -3.9375q-0.03125 -0.0625 -0.109375 -0.3125q-0.078125 -0.25 -0.1875 -0.5625q-0.09375 -0.3125 -0.1875 -0.5625q-0.078125 -0.265625 -0.109375 -0.328125l0.21875 -0.015625q-0.0625 0.15625 -0.140625 0.40625q-0.078125 0.234375 -0.171875 0.515625q-0.078125 0.265625 -0.171875 0.5q-0.078125 0.234375 -0.125 0.390625l-1.484375 3.90625l-1.03125 0zm1.125 -1.625l0.359375 -0.96875l2.96875 0l0.4375 0.96875l-3.765625 0zm6.0921783 1.625l0 -6.53125l2.7656403 0q0.5625 0 1.03125 0.28125q0.484375 0.265625 0.75 0.75q0.28125 0.46875 0.28125 1.046875q0 0.53125 -0.28125 1.0q-0.265625 0.453125 -0.734375 0.734375q-0.46875 0.265625 -1.046875 0.265625l-1.7656403 0l0 2.453125l-1.0 0zm3.8750153 0l-1.6562653 -2.953125l1.0312653 -0.234375l1.84375 3.203125l-1.21875 -0.015625zm-2.8750153 -3.421875l1.8593903 0q0.28125 0 0.484375 -0.125q0.21875 -0.140625 0.34375 -0.375q0.125 -0.25 0.125 -0.53125q0 -0.328125 -0.15625 -0.578125q-0.15625 -0.25 -0.4375 -0.390625q-0.265625 -0.140625 -0.60939026 -0.140625l-1.609375 0l0 2.140625z" fill-rule="nonzero"/><path fill="#cfe2f3" d="m417.55905 277.6378c0 -19.273438 15.863922 -34.89763 35.433075 -34.89763c9.39743 0 18.409973 3.6766968 25.054962 10.221283c6.644989 6.544571 10.378113 15.420914 10.378113 24.676346c0 19.273438 -15.863922 34.897644 -35.433075 34.897644c-19.569153 0 -35.433075 -15.624207 -35.433075 -34.897644z" fill-rule="evenodd"/><path stroke="#000000" stroke-width="1.0" stroke-linejoin="round" stroke-linecap="butt" d="m417.55905 277.6378c0 -19.273438 15.863922 -34.89763 35.433075 -34.89763c9.39743 0 18.409973 3.6766968 25.054962 10.221283c6.644989 6.544571 10.378113 15.420914 10.378113 24.676346c0 19.273438 -15.863922 34.897644 -35.433075 34.897644c-19.569153 0 -35.433075 -15.624207 -35.433075 -34.897644z" fill-rule="evenodd"/><path fill="#000000" d="m440.02448 281.0978l0 -6.53125l2.765625 0q0.5625 0 1.03125 0.28125q0.484375 0.265625 0.75 0.75q0.28125 0.46875 0.28125 1.046875q0 0.53125 -0.28125 1.0q-0.265625 0.453125 -0.734375 0.734375q-0.46875 0.265625 -1.046875 0.265625l-1.765625 0l0 2.453125l-1.0 0zm3.875 0l-1.65625 -2.953125l1.03125 -0.234375l1.84375 3.203125l-1.21875 -0.015625zm-2.875 -3.421875l1.859375 0q0.28125 0 0.484375 -0.125q0.21875 -0.140625 0.34375 -0.375q0.125 -0.25 0.125 -0.53125q0 -0.328125 -0.15625 -0.578125q-0.15625 -0.25 -0.4375 -0.390625q-0.265625 -0.140625 -0.609375 -0.140625l-1.609375 0l0 2.140625zm6.9370117 3.515625q-0.609375 0 -1.109375 -0.328125q-0.5 -0.34375 -0.796875 -0.921875q-0.296875 -0.578125 -0.296875 -1.3125q0 -0.734375 0.296875 -1.296875q0.296875 -0.578125 0.8125 -0.90625q0.53125 -0.328125 1.171875 -0.328125q0.375 0 0.6875 0.109375q0.328125 0.109375 0.5625 0.3125q0.234375 0.203125 0.390625 0.46875q0.15625 0.25 0.203125 0.5625l-0.21875 -0.078125l0 -1.265625l0.96875 0l0 4.890625l-0.96875 0l0 -1.171875l0.21875 -0.0625q-0.046875 0.25 -0.234375 0.5q-0.171875 0.234375 -0.4375 0.421875q-0.265625 0.1875 -0.59375 0.296875q-0.3125 0.109375 -0.65625 0.109375zm0.25 -0.890625q0.4375 0 0.765625 -0.203125q0.34375 -0.21875 0.53125 -0.59375q0.1875 -0.390625 0.1875 -0.875q0 -0.46875 -0.1875 -0.84375q-0.1875 -0.375 -0.53125 -0.578125q-0.328125 -0.21875 -0.765625 -0.21875q-0.4375 0 -0.765625 0.21875q-0.328125 0.203125 -0.53125 0.578125q-0.1875 0.375 -0.1875 0.84375q0 0.484375 0.1875 0.875q0.203125 0.375 0.53125 0.59375q0.328125 0.203125 0.765625 0.203125zm5.8109436 0.890625q-0.671875 0 -1.203125 -0.328125q-0.53125 -0.328125 -0.84375 -0.90625q-0.296875 -0.578125 -0.296875 -1.3125q0 -0.734375 0.296875 -1.3125q0.3125 -0.578125 0.828125 -0.90625q0.53125 -0.328125 1.1875 -0.328125q0.359375 0 0.703125 0.125q0.34375 0.109375 0.609375 0.3125q0.265625 0.203125 0.421875 0.4375q0.15625 0.234375 0.15625 0.484375l-0.28125 0.015625l0 -3.28125l0.96875 0l0 6.90625l-0.96875 0l0 -1.171875l0.1875 0q0 0.234375 -0.15625 0.453125q-0.140625 0.21875 -0.390625 0.40625q-0.25 0.1875 -0.578125 0.296875q-0.3125 0.109375 -0.640625 0.109375zm0.125 -0.828125q0.4375 0 0.765625 -0.21875q0.34375 -0.234375 0.53125 -0.609375q0.203125 -0.390625 0.203125 -0.890625q0 -0.5 -0.203125 -0.875q-0.1875 -0.390625 -0.53125 -0.609375q-0.328125 -0.234375 -0.765625 -0.234375q-0.4375 0 -0.78125 0.234375q-0.328125 0.21875 -0.515625 0.609375q-0.1875 0.375 -0.1875 0.875q0 0.5 0.1875 0.890625q0.1875 0.375 0.515625 0.609375q0.34375 0.21875 0.78125 0.21875zm5.632782 0.828125q-0.609375 0 -1.109375 -0.328125q-0.5 -0.34375 -0.796875 -0.921875q-0.296875 -0.578125 -0.296875 -1.3125q0 -0.734375 0.296875 -1.296875q0.296875 -0.578125 0.8125 -0.90625q0.53125 -0.328125 1.171875 -0.328125q0.375 0 0.6875 0.109375q0.328125 0.109375 0.5625 0.3125q0.234375 0.203125 0.390625 0.46875q0.15625 0.25 0.203125 0.5625l-0.21875 -0.078125l0 -1.265625l0.96875 0l0 4.890625l-0.96875 0l0 -1.171875l0.21875 -0.0625q-0.046875 0.25 -0.234375 0.5q-0.171875 0.234375 -0.4375 0.421875q-0.265625 0.1875 -0.59375 0.296875q-0.3125 0.109375 -0.65625 0.109375zm0.25 -0.890625q0.4375 0 0.765625 -0.203125q0.34375 -0.21875 0.53125 -0.59375q0.1875 -0.390625 0.1875 -0.875q0 -0.46875 -0.1875 -0.84375q-0.1875 -0.375 -0.53125 -0.578125q-0.328125 -0.21875 -0.765625 -0.21875q-0.4375 0 -0.765625 0.21875q-0.328125 0.203125 -0.53125 0.578125q-0.1875 0.375 -0.1875 0.84375q0 0.484375 0.1875 0.875q0.203125 0.375 0.53125 0.59375q0.328125 0.203125 0.765625 0.203125zm3.7640991 0.796875l0 -4.890625l0.96875 0l0 1.53125l-0.09375 -0.375q0.109375 -0.34375 0.34375 -0.640625q0.25 -0.296875 0.578125 -0.453125q0.328125 -0.171875 0.671875 -0.171875q0.15625 0 0.296875 0.03125q0.140625 0.03125 0.234375 0.0625l-0.25 1.046875q-0.125 -0.046875 -0.265625 -0.078125q-0.125 -0.03125 -0.25 -0.03125q-0.25 0 -0.484375 0.09375q-0.234375 0.09375 -0.40625 0.265625q-0.171875 0.171875 -0.28125 0.40625q-0.09375 0.234375 -0.09375 0.5l0 2.703125l-0.96875 0z" fill-rule="nonzero"/><path fill="#cfe2f3" d="m300.83466 165.61942c0 -19.273422 15.863922 -34.89763 35.433075 -34.89763c9.39743 0 18.409973 3.6766968 25.054962 10.221283c6.644989 6.544571 10.378082 15.420929 10.378082 24.676346c0 19.273438 -15.863922 34.897644 -35.433044 34.897644c-19.569153 0 -35.433075 -15.624207 -35.433075 -34.897644z" fill-rule="evenodd"/><path stroke="#000000" stroke-width="1.0" stroke-linejoin="round" stroke-linecap="butt" d="m300.83466 165.61942c0 -19.273422 15.863922 -34.89763 35.433075 -34.89763c9.39743 0 18.409973 3.6766968 25.054962 10.221283c6.644989 6.544571 10.378082 15.420929 10.378082 24.676346c0 19.273438 -15.863922 34.897644 -35.433044 34.897644c-19.569153 0 -35.433075 -15.624207 -35.433075 -34.897644z" fill-rule="evenodd"/><path fill="#000000" d="m327.89514 164.08192q-0.484375 0 -0.890625 -0.171875q-0.40625 -0.171875 -0.71875 -0.484375q-0.296875 -0.328125 -0.46875 -0.765625q-0.15625 -0.4375 -0.15625 -0.96875q0 -0.5 0.171875 -0.921875q0.1875 -0.4375 0.5 -0.765625q0.3125 -0.328125 0.71875 -0.5q0.421875 -0.1875 0.90625 -0.1875q0.328125 0 0.65625 0.109375q0.328125 0.09375 0.578125 0.28125q0.265625 0.1875 0.4375 0.421875l-0.484375 0.5q-0.1875 -0.203125 -0.390625 -0.328125q-0.1875 -0.125 -0.390625 -0.1875q-0.203125 -0.078125 -0.40625 -0.078125q-0.328125 0 -0.625 0.125q-0.28125 0.125 -0.484375 0.34375q-0.203125 0.21875 -0.328125 0.53125q-0.125 0.296875 -0.125 0.65625q0 0.375 0.109375 0.6875q0.125 0.3125 0.328125 0.53125q0.21875 0.21875 0.515625 0.34375q0.296875 0.109375 0.65625 0.109375q0.21875 0 0.4375 -0.0625q0.21875 -0.0625 0.40625 -0.171875q0.1875 -0.109375 0.328125 -0.265625l0.359375 0.578125q-0.140625 0.1875 -0.40625 0.34375q-0.265625 0.140625 -0.59375 0.21875q-0.3125 0.078125 -0.640625 0.078125zm4.019562 0q-0.515625 0 -0.921875 -0.234375q-0.390625 -0.234375 -0.625 -0.640625q-0.234375 -0.40625 -0.234375 -0.9375q0 -0.53125 0.234375 -0.9375q0.234375 -0.40625 0.625 -0.640625q0.40625 -0.234375 0.921875 -0.234375q0.515625 0 0.90625 0.234375q0.40625 0.234375 0.640625 0.640625q0.234375 0.40625 0.234375 0.9375q0 0.53125 -0.234375 0.9375q-0.234375 0.40625 -0.640625 0.640625q-0.390625 0.234375 -0.90625 0.234375zm0 -0.625q0.3125 0 0.5625 -0.15625q0.25 -0.15625 0.390625 -0.421875q0.140625 -0.265625 0.125 -0.609375q0.015625 -0.34375 -0.125 -0.609375q-0.140625 -0.28125 -0.390625 -0.421875q-0.25 -0.15625 -0.5625 -0.15625q-0.3125 0 -0.5625 0.15625q-0.25 0.15625 -0.390625 0.421875q-0.140625 0.265625 -0.125 0.609375q-0.015625 0.34375 0.125 0.609375q0.140625 0.265625 0.390625 0.421875q0.25 0.15625 0.5625 0.15625zm2.5310364 0.5625l0 -3.5l0.6875 0l0 1.109375l-0.0625 -0.265625q0.0625 -0.265625 0.234375 -0.46875q0.1875 -0.203125 0.40625 -0.3125q0.234375 -0.125 0.484375 -0.125q0.109375 0 0.21875 0.015625q0.109375 0.015625 0.15625 0.046875l-0.171875 0.75q-0.078125 -0.03125 -0.1875 -0.046875q-0.09375 -0.03125 -0.1875 -0.03125q-0.171875 0 -0.34375 0.0625q-0.15625 0.0625 -0.28125 0.1875q-0.125 0.125 -0.203125 0.296875q-0.0625 0.15625 -0.0625 0.34375l0 1.9375l-0.6875 0zm2.682434 0l0 -3.5l0.6875 0l0 0.71875l-0.125 0.078125q0.0625 -0.21875 0.25 -0.421875q0.203125 -0.203125 0.46875 -0.3125q0.265625 -0.125 0.546875 -0.125q0.390625 0 0.65625 0.15625q0.265625 0.15625 0.390625 0.484375q0.140625 0.3125 0.140625 0.796875l0 2.125l-0.671875 0l0 -2.078125q0 -0.3125 -0.09375 -0.5q-0.078125 -0.203125 -0.25 -0.28125q-0.15625 -0.09375 -0.40625 -0.078125q-0.1875 0 -0.359375 0.0625q-0.171875 0.0625 -0.296875 0.171875q-0.125 0.109375 -0.1875 0.265625q-0.0625 0.140625 -0.0625 0.328125l0 2.109375l-0.34375 0q-0.09375 0 -0.1875 0q-0.078125 0 -0.15625 0zm5.5854187 0.0625q-0.53125 0 -0.953125 -0.21875q-0.421875 -0.234375 -0.65625 -0.625q-0.234375 -0.40625 -0.234375 -0.921875q0 -0.421875 0.125 -0.75q0.140625 -0.34375 0.375 -0.59375q0.234375 -0.25 0.5625 -0.390625q0.328125 -0.140625 0.71875 -0.140625q0.34375 0 0.625 0.140625q0.296875 0.125 0.515625 0.359375q0.21875 0.21875 0.328125 0.53125q0.125 0.296875 0.125 0.671875l-0.015625 0.296875l-2.859375 0l-0.140625 -0.546875l2.40625 0l-0.09375 0.109375l0 -0.15625q-0.015625 -0.21875 -0.15625 -0.390625q-0.125 -0.1875 -0.3125 -0.28125q-0.1875 -0.09375 -0.421875 -0.09375q-0.359375 0 -0.609375 0.140625q-0.234375 0.125 -0.375 0.390625q-0.125 0.265625 -0.125 0.65625q0 0.359375 0.15625 0.625q0.15625 0.265625 0.4375 0.421875q0.28125 0.140625 0.640625 0.140625q0.265625 0 0.484375 -0.078125q0.21875 -0.09375 0.484375 -0.3125l0.34375 0.484375q-0.15625 0.15625 -0.390625 0.28125q-0.21875 0.109375 -0.484375 0.1875q-0.25 0.0625 -0.5 0.0625zm2.2755127 -0.0625l0 -3.5l0.6875 0l0 1.109375l-0.0625 -0.265625q0.0625 -0.265625 0.234375 -0.46875q0.1875 -0.203125 0.40625 -0.3125q0.234375 -0.125 0.484375 -0.125q0.109375 0 0.21875 0.015625q0.109375 0.015625 0.15625 0.046875l-0.171875 0.75q-0.078125 -0.03125 -0.1875 -0.046875q-0.09375 -0.03125 -0.1875 -0.03125q-0.171875 0 -0.34375 0.0625q-0.15625 0.0625 -0.28125 0.1875q-0.125 0.125 -0.203125 0.296875q-0.0625 0.15625 -0.0625 0.34375l0 1.9375l-0.6875 0z" fill-rule="nonzero"/><path fill="#000000" d="m324.36514 172.08192q-0.484375 0 -0.875 -0.234375q-0.375 -0.234375 -0.609375 -0.640625q-0.21875 -0.421875 -0.21875 -0.9375q0 -0.515625 0.21875 -0.921875q0.234375 -0.421875 0.609375 -0.65625q0.390625 -0.234375 0.875 -0.234375q0.453125 0 0.828125 0.1875q0.390625 0.1875 0.59375 0.515625l-0.375 0.46875q-0.109375 -0.15625 -0.28125 -0.28125q-0.15625 -0.125 -0.34375 -0.203125q-0.1875 -0.078125 -0.359375 -0.078125q-0.328125 0 -0.578125 0.15625q-0.234375 0.15625 -0.390625 0.4375q-0.140625 0.265625 -0.140625 0.609375q0 0.34375 0.140625 0.609375q0.15625 0.265625 0.40625 0.4375q0.265625 0.15625 0.5625 0.15625q0.1875 0 0.359375 -0.0625q0.171875 -0.0625 0.328125 -0.171875q0.15625 -0.125 0.296875 -0.296875l0.375 0.453125q-0.203125 0.3125 -0.609375 0.5q-0.390625 0.1875 -0.8125 0.1875zm3.4204102 0q-0.4375 0 -0.796875 -0.234375q-0.359375 -0.234375 -0.578125 -0.640625q-0.203125 -0.421875 -0.203125 -0.9375q0 -0.53125 0.21875 -0.9375q0.21875 -0.421875 0.578125 -0.640625q0.375 -0.234375 0.84375 -0.234375q0.265625 0 0.484375 0.078125q0.234375 0.078125 0.40625 0.21875q0.171875 0.140625 0.28125 0.328125q0.109375 0.1875 0.125 0.40625l-0.140625 -0.0625l0 -0.90625l0.6875 0l0 3.5l-0.6875 0l0 -0.828125l0.15625 -0.046875q-0.046875 0.171875 -0.171875 0.34375q-0.109375 0.171875 -0.3125 0.3125q-0.1875 0.125 -0.421875 0.203125q-0.21875 0.078125 -0.46875 0.078125zm0.171875 -0.625q0.3125 0 0.546875 -0.15625q0.25 -0.15625 0.375 -0.421875q0.140625 -0.265625 0.140625 -0.609375q0 -0.34375 -0.140625 -0.609375q-0.125 -0.265625 -0.375 -0.421875q-0.234375 -0.15625 -0.546875 -0.15625q-0.296875 0 -0.546875 0.15625q-0.234375 0.15625 -0.375 0.421875q-0.125 0.265625 -0.125 0.609375q0 0.34375 0.125 0.609375q0.140625 0.265625 0.375 0.421875q0.25 0.15625 0.546875 0.15625zm2.6820984 0.5625l0 -3.5l0.6875 0l0 0.75l-0.125 0.078125q0.046875 -0.171875 0.15625 -0.328125q0.125 -0.15625 0.296875 -0.28125q0.171875 -0.125 0.359375 -0.1875q0.203125 -0.078125 0.40625 -0.078125q0.3125 0 0.53125 0.09375q0.234375 0.09375 0.375 0.296875q0.140625 0.203125 0.21875 0.5l-0.109375 -0.03125l0.046875 -0.109375q0.0625 -0.15625 0.1875 -0.28125q0.140625 -0.140625 0.296875 -0.25q0.171875 -0.109375 0.359375 -0.15625q0.1875 -0.0625 0.375 -0.0625q0.390625 0 0.640625 0.15625q0.265625 0.15625 0.390625 0.484375q0.125 0.328125 0.125 0.8125l0 2.09375l-0.6875 0l0 -2.0625q0 -0.296875 -0.078125 -0.484375q-0.078125 -0.1875 -0.234375 -0.28125q-0.140625 -0.09375 -0.390625 -0.09375q-0.1875 0 -0.359375 0.0625q-0.15625 0.0625 -0.28125 0.1875q-0.109375 0.109375 -0.171875 0.265625q-0.0625 0.140625 -0.0625 0.3125l0 2.09375l-0.703125 0l0 -2.0625q0 -0.28125 -0.078125 -0.46875q-0.078125 -0.1875 -0.234375 -0.28125q-0.15625 -0.109375 -0.375 -0.109375q-0.1875 0 -0.34375 0.0625q-0.15625 0.0625 -0.28125 0.171875q-0.109375 0.109375 -0.1875 0.265625q-0.0625 0.140625 -0.0625 0.3125l0 2.109375l-0.6875 0zm7.7709656 0.0625q-0.53125 0 -0.953125 -0.21875q-0.421875 -0.234375 -0.65625 -0.625q-0.234375 -0.40625 -0.234375 -0.921875q0 -0.421875 0.125 -0.75q0.140625 -0.34375 0.375 -0.59375q0.234375 -0.25 0.5625 -0.390625q0.328125 -0.140625 0.71875 -0.140625q0.34375 0 0.625 0.140625q0.296875 0.125 0.515625 0.359375q0.21875 0.21875 0.328125 0.53125q0.125 0.296875 0.125 0.671875l-0.015625 0.296875l-2.859375 0l-0.140625 -0.546875l2.40625 0l-0.09375 0.109375l0 -0.15625q-0.015625 -0.21875 -0.15625 -0.390625q-0.125 -0.1875 -0.3125 -0.28125q-0.1875 -0.09375 -0.421875 -0.09375q-0.359375 0 -0.609375 0.140625q-0.234375 0.125 -0.375 0.390625q-0.125 0.265625 -0.125 0.65625q0 0.359375 0.15625 0.625q0.15625 0.265625 0.4375 0.421875q0.28125 0.140625 0.640625 0.140625q0.265625 0 0.484375 -0.078125q0.21875 -0.09375 0.484375 -0.3125l0.34375 0.484375q-0.15625 0.15625 -0.390625 0.28125q-0.21875 0.109375 -0.484375 0.1875q-0.25 0.0625 -0.5 0.0625zm2.2755127 -0.0625l0 -3.5l0.6875 0l0 1.109375l-0.0625 -0.265625q0.0625 -0.265625 0.234375 -0.46875q0.1875 -0.203125 0.40625 -0.3125q0.234375 -0.125 0.484375 -0.125q0.109375 0 0.21875 0.015625q0.109375 0.015625 0.15625 0.046875l-0.171875 0.75q-0.078125 -0.03125 -0.1875 -0.046875q-0.09375 -0.03125 -0.1875 -0.03125q-0.171875 0 -0.34375 0.0625q-0.15625 0.0625 -0.28125 0.1875q-0.125 0.125 -0.203125 0.296875q-0.0625 0.15625 -0.0625 0.34375l0 1.9375l-0.6875 0zm3.8795166 0.0625q-0.4375 0 -0.796875 -0.234375q-0.359375 -0.234375 -0.578125 -0.640625q-0.203125 -0.421875 -0.203125 -0.9375q0 -0.53125 0.21875 -0.9375q0.21875 -0.421875 0.578125 -0.640625q0.375 -0.234375 0.84375 -0.234375q0.265625 0 0.484375 0.078125q0.234375 0.078125 0.40625 0.21875q0.171875 0.140625 0.28125 0.328125q0.109375 0.1875 0.125 0.40625l-0.140625 -0.0625l0 -0.90625l0.6875 0l0 3.5l-0.6875 0l0 -0.828125l0.15625 -0.046875q-0.046875 0.171875 -0.171875 0.34375q-0.109375 0.171875 -0.3125 0.3125q-0.1875 0.125 -0.421875 0.203125q-0.21875 0.078125 -0.46875 0.078125zm0.171875 -0.625q0.3125 0 0.546875 -0.15625q0.25 -0.15625 0.375 -0.421875q0.140625 -0.265625 0.140625 -0.609375q0 -0.34375 -0.140625 -0.609375q-0.125 -0.265625 -0.375 -0.421875q-0.234375 -0.15625 -0.546875 -0.15625q-0.296875 0 -0.546875 0.15625q-0.234375 0.15625 -0.375 0.421875q-0.125 0.265625 -0.125 0.609375q0 0.34375 0.125 0.609375q0.140625 0.265625 0.375 0.421875q0.25 0.15625 0.546875 0.15625zm3.8539734 0.625q-0.4375 0 -0.796875 -0.140625q-0.34375 -0.15625 -0.578125 -0.46875l0.46875 -0.390625q0.203125 0.234375 0.4375 0.34375q0.234375 0.09375 0.53125 0.09375q0.125 0 0.21875 -0.03125q0.109375 -0.03125 0.1875 -0.078125q0.078125 -0.0625 0.109375 -0.140625q0.046875 -0.09375 0.046875 -0.1875q0 -0.1875 -0.125 -0.28125q-0.078125 -0.046875 -0.21875 -0.109375q-0.140625 -0.0625 -0.359375 -0.109375q-0.390625 -0.109375 -0.640625 -0.234375q-0.25 -0.125 -0.375 -0.28125q-0.09375 -0.125 -0.140625 -0.28125q-0.046875 -0.15625 -0.046875 -0.328125q0 -0.21875 0.09375 -0.390625q0.09375 -0.1875 0.265625 -0.328125q0.171875 -0.140625 0.390625 -0.203125q0.234375 -0.078125 0.5 -0.078125q0.234375 0 0.484375 0.0625q0.25 0.0625 0.453125 0.1875q0.203125 0.125 0.34375 0.296875l-0.390625 0.4375q-0.125 -0.125 -0.28125 -0.21875q-0.15625 -0.09375 -0.3125 -0.140625q-0.140625 -0.0625 -0.265625 -0.0625q-0.140625 0 -0.265625 0.03125q-0.109375 0.015625 -0.1875 0.078125q-0.0625 0.046875 -0.109375 0.125q-0.046875 0.078125 -0.046875 0.1875q0.015625 0.078125 0.046875 0.15625q0.046875 0.078125 0.109375 0.125q0.078125 0.0625 0.21875 0.125q0.140625 0.0625 0.375 0.109375q0.328125 0.078125 0.546875 0.1875q0.21875 0.109375 0.34375 0.234375q0.125 0.125 0.171875 0.296875q0.0625 0.171875 0.0625 0.375q0 0.296875 -0.171875 0.53125q-0.171875 0.234375 -0.453125 0.375q-0.28125 0.125 -0.640625 0.125z" fill-rule="nonzero"/><path fill="#cfe2f3" d="m417.55774 187.99606c0 -19.273438 15.863922 -34.897644 35.433075 -34.897644c9.39743 0 18.409973 3.676712 25.054962 10.221283c6.644989 6.544586 10.378113 15.420929 10.378113 24.676361c0 19.273438 -15.863922 34.897644 -35.433075 34.897644c-19.569153 0 -35.433075 -15.624207 -35.433075 -34.897644z" fill-rule="evenodd"/><path stroke="#000000" stroke-width="1.0" stroke-linejoin="round" stroke-linecap="butt" d="m417.55774 187.99606c0 -19.273438 15.863922 -34.897644 35.433075 -34.897644c9.39743 0 18.409973 3.676712 25.054962 10.221283c6.644989 6.544586 10.378113 15.420929 10.378113 24.676361c0 19.273438 -15.863922 34.897644 -35.433075 34.897644c-19.569153 0 -35.433075 -15.624207 -35.433075 -34.897644z" fill-rule="evenodd"/><path fill="#000000" d="m443.5002 185.67606l0 -5.59375l0.859375 0l0 5.59375l-0.859375 0zm0.390625 -2.390625l0 -0.828125l2.890625 0l0 0.828125l-2.890625 0zm0 -2.375l0 -0.828125l3.25 0l0 0.828125l-3.25 0zm4.150177 4.765625l0 -4.203125l0.828125 0l0 1.328125l-0.078125 -0.328125q0.09375 -0.296875 0.296875 -0.546875q0.21875 -0.25 0.484375 -0.390625q0.28125 -0.140625 0.578125 -0.140625q0.140625 0 0.265625 0.03125q0.125 0.015625 0.1875 0.046875l-0.21875 0.890625q-0.09375 -0.046875 -0.21875 -0.0625q-0.109375 -0.03125 -0.21875 -0.03125q-0.21875 0 -0.421875 0.09375q-0.1875 0.078125 -0.34375 0.234375q-0.140625 0.140625 -0.234375 0.34375q-0.078125 0.1875 -0.078125 0.421875l0 2.3125l-0.828125 0zm4.938568 0.078125q-0.625 0 -1.109375 -0.28125q-0.484375 -0.28125 -0.765625 -0.765625q-0.28125 -0.5 -0.28125 -1.140625q0 -0.625 0.28125 -1.109375q0.28125 -0.5 0.765625 -0.78125q0.484375 -0.28125 1.109375 -0.28125q0.609375 0 1.09375 0.28125q0.484375 0.28125 0.75 0.78125q0.28125 0.484375 0.28125 1.109375q0 0.640625 -0.28125 1.140625q-0.265625 0.484375 -0.75 0.765625q-0.484375 0.28125 -1.09375 0.28125zm0 -0.75q0.375 0 0.671875 -0.1875q0.296875 -0.1875 0.453125 -0.515625q0.171875 -0.328125 0.171875 -0.734375q0 -0.40625 -0.171875 -0.734375q-0.15625 -0.328125 -0.453125 -0.5q-0.296875 -0.1875 -0.671875 -0.1875q-0.375 0 -0.6875 0.1875q-0.296875 0.1875 -0.46875 0.515625q-0.15625 0.3125 -0.15625 0.71875q0 0.40625 0.15625 0.734375q0.171875 0.328125 0.46875 0.515625q0.3125 0.1875 0.6875 0.1875zm3.0293274 0.671875l0 -4.203125l0.828125 0l0 0.859375l-0.15625 0.109375q0.09375 -0.28125 0.3125 -0.515625q0.234375 -0.234375 0.546875 -0.375q0.328125 -0.15625 0.671875 -0.15625q0.46875 0 0.78125 0.1875q0.328125 0.1875 0.484375 0.578125q0.171875 0.375 0.171875 0.953125l0 2.5625l-0.828125 0l0 -2.5q0 -0.359375 -0.09375 -0.59375q-0.09375 -0.25 -0.296875 -0.34375q-0.203125 -0.109375 -0.5 -0.09375q-0.234375 0 -0.4375 0.078125q-0.203125 0.0625 -0.359375 0.203125q-0.140625 0.140625 -0.21875 0.328125q-0.078125 0.171875 -0.078125 0.375l0 2.546875l-0.421875 0q-0.09375 0 -0.203125 0q-0.09375 0 -0.203125 0zm5.275543 0l0 -5.265625l0.828125 0l0 5.265625l-0.828125 0zm-0.875 -3.40625l0 -0.796875l2.671875 0l0 0.796875l-2.671875 0z" fill-rule="nonzero"/><path fill="#000000" d="m440.5944 195.75418q-0.578125 0 -1.046875 -0.28125q-0.453125 -0.296875 -0.734375 -0.78125q-0.265625 -0.5 -0.265625 -1.125q0 -0.609375 0.265625 -1.109375q0.28125 -0.5 0.734375 -0.78125q0.46875 -0.28125 1.046875 -0.28125q0.5625 0 1.015625 0.234375q0.46875 0.21875 0.703125 0.609375l-0.453125 0.5625q-0.125 -0.1875 -0.328125 -0.34375q-0.203125 -0.15625 -0.4375 -0.234375q-0.21875 -0.09375 -0.421875 -0.09375q-0.375 0 -0.6875 0.1875q-0.296875 0.1875 -0.46875 0.515625q-0.171875 0.328125 -0.171875 0.734375q0 0.40625 0.171875 0.734375q0.1875 0.328125 0.484375 0.53125q0.3125 0.1875 0.6875 0.1875q0.203125 0 0.40625 -0.078125q0.21875 -0.078125 0.40625 -0.21875q0.1875 -0.140625 0.359375 -0.34375l0.453125 0.546875q-0.25 0.359375 -0.734375 0.59375q-0.46875 0.234375 -0.984375 0.234375zm4.1080627 0q-0.515625 0 -0.953125 -0.28125q-0.421875 -0.296875 -0.6875 -0.78125q-0.25 -0.5 -0.25 -1.125q0 -0.640625 0.265625 -1.125q0.265625 -0.5 0.703125 -0.765625q0.453125 -0.28125 1.0 -0.28125q0.328125 0 0.59375 0.09375q0.28125 0.09375 0.484375 0.265625q0.203125 0.171875 0.328125 0.40625q0.140625 0.21875 0.171875 0.46875l-0.1875 -0.0625l0 -1.09375l0.828125 0l0 4.203125l-0.828125 0l0 -1.0l0.1875 -0.0625q-0.046875 0.21875 -0.203125 0.421875q-0.140625 0.203125 -0.375 0.375q-0.21875 0.15625 -0.5 0.25q-0.265625 0.09375 -0.578125 0.09375zm0.21875 -0.765625q0.375 0 0.65625 -0.171875q0.296875 -0.1875 0.453125 -0.515625q0.171875 -0.328125 0.171875 -0.734375q0 -0.40625 -0.171875 -0.71875q-0.15625 -0.328125 -0.453125 -0.515625q-0.28125 -0.1875 -0.65625 -0.1875q-0.359375 0 -0.65625 0.1875q-0.28125 0.1875 -0.453125 0.515625q-0.15625 0.3125 -0.15625 0.71875q0 0.40625 0.15625 0.734375q0.171875 0.328125 0.453125 0.515625q0.296875 0.171875 0.65625 0.171875zm3.2201843 0.6875l0 -4.203125l0.828125 0l0 0.90625l-0.15625 0.09375q0.0625 -0.21875 0.203125 -0.40625q0.140625 -0.1875 0.34375 -0.328125q0.203125 -0.15625 0.4375 -0.234375q0.25 -0.09375 0.5 -0.09375q0.359375 0 0.625 0.125q0.265625 0.109375 0.4375 0.359375q0.1875 0.234375 0.265625 0.59375l-0.125 -0.03125l0.046875 -0.140625q0.09375 -0.1875 0.25 -0.34375q0.15625 -0.171875 0.359375 -0.296875q0.203125 -0.125 0.421875 -0.1875q0.21875 -0.078125 0.4375 -0.078125q0.46875 0 0.78125 0.1875q0.3125 0.1875 0.46875 0.578125q0.15625 0.390625 0.15625 0.984375l0 2.515625l-0.828125 0l0 -2.46875q0 -0.359375 -0.09375 -0.578125q-0.09375 -0.234375 -0.28125 -0.34375q-0.1875 -0.125 -0.46875 -0.125q-0.234375 0 -0.4375 0.078125q-0.1875 0.078125 -0.328125 0.21875q-0.140625 0.125 -0.21875 0.3125q-0.078125 0.171875 -0.078125 0.390625l0 2.515625l-0.84375 0l0 -2.484375q0 -0.328125 -0.09375 -0.546875q-0.09375 -0.234375 -0.28125 -0.359375q-0.171875 -0.125 -0.4375 -0.125q-0.234375 0 -0.421875 0.078125q-0.1875 0.078125 -0.34375 0.21875q-0.140625 0.125 -0.21875 0.3125q-0.078125 0.171875 -0.078125 0.375l0 2.53125l-0.828125 0zm9.336639 0.078125q-0.640625 0 -1.140625 -0.265625q-0.5 -0.28125 -0.796875 -0.765625q-0.28125 -0.484375 -0.28125 -1.109375q0 -0.484375 0.15625 -0.890625q0.171875 -0.421875 0.453125 -0.71875q0.28125 -0.296875 0.671875 -0.453125q0.40625 -0.171875 0.875 -0.171875q0.40625 0 0.75 0.15625q0.359375 0.15625 0.609375 0.4375q0.265625 0.265625 0.40625 0.640625q0.140625 0.359375 0.140625 0.8125l-0.015625 0.34375l-3.4375 0l-0.171875 -0.65625l2.890625 0l-0.109375 0.140625l0 -0.1875q-0.03125 -0.265625 -0.1875 -0.46875q-0.140625 -0.21875 -0.375 -0.328125q-0.234375 -0.125 -0.5 -0.125q-0.4375 0 -0.734375 0.171875q-0.296875 0.15625 -0.453125 0.46875q-0.140625 0.3125 -0.140625 0.78125q0 0.4375 0.171875 0.765625q0.1875 0.3125 0.515625 0.5q0.34375 0.171875 0.78125 0.171875q0.3125 0 0.578125 -0.09375q0.28125 -0.109375 0.59375 -0.390625l0.40625 0.59375q-0.1875 0.1875 -0.46875 0.328125q-0.265625 0.140625 -0.578125 0.234375q-0.3125 0.078125 -0.609375 0.078125zm2.7348328 -0.078125l0 -4.203125l0.828125 0l0 1.328125l-0.078125 -0.328125q0.09375 -0.296875 0.296875 -0.546875q0.21875 -0.25 0.484375 -0.390625q0.28125 -0.140625 0.578125 -0.140625q0.140625 0 0.265625 0.03125q0.125 0.015625 0.1875 0.046875l-0.21875 0.890625q-0.09375 -0.046875 -0.21875 -0.0625q-0.109375 -0.03125 -0.21875 -0.03125q-0.21875 0 -0.421875 0.09375q-0.1875 0.078125 -0.34375 0.234375q-0.140625 0.140625 -0.234375 0.34375q-0.078125 0.1875 -0.078125 0.421875l0 2.3125l-0.828125 0zm4.657318 0.078125q-0.515625 0 -0.953125 -0.28125q-0.421875 -0.296875 -0.6875 -0.78125q-0.25 -0.5 -0.25 -1.125q0 -0.640625 0.265625 -1.125q0.265625 -0.5 0.703125 -0.765625q0.453125 -0.28125 1.0 -0.28125q0.328125 0 0.59375 0.09375q0.28125 0.09375 0.484375 0.265625q0.203125 0.171875 0.328125 0.40625q0.140625 0.21875 0.171875 0.46875l-0.1875 -0.0625l0 -1.09375l0.828125 0l0 4.203125l-0.828125 0l0 -1.0l0.1875 -0.0625q-0.046875 0.21875 -0.203125 0.421875q-0.140625 0.203125 -0.375 0.375q-0.21875 0.15625 -0.5 0.25q-0.265625 0.09375 -0.578125 0.09375zm0.21875 -0.765625q0.375 0 0.65625 -0.171875q0.296875 -0.1875 0.453125 -0.515625q0.171875 -0.328125 0.171875 -0.734375q0 -0.40625 -0.171875 -0.71875q-0.15625 -0.328125 -0.453125 -0.515625q-0.28125 -0.1875 -0.65625 -0.1875q-0.359375 0 -0.65625 0.1875q-0.28125 0.1875 -0.453125 0.515625q-0.15625 0.3125 -0.15625 0.71875q0 0.40625 0.15625 0.734375q0.171875 0.328125 0.453125 0.515625q0.296875 0.171875 0.65625 0.171875z" fill-rule="nonzero"/><path fill="#000000" fill-opacity="0.0" d="m300.83466 289.2047l-41.039368 60.06302" fill-rule="evenodd"/><path stroke="#000000" stroke-width="1.0" stroke-linejoin="round" stroke-linecap="butt" d="m300.83466 289.2047l-41.039368 60.06302" fill-rule="evenodd"/><path fill="#000000" fill-opacity="0.0" d="m361.3227 190.29578l80.37793 158.96063" fill-rule="evenodd"/><path stroke="#000000" stroke-width="1.0" stroke-linejoin="round" stroke-linecap="butt" d="m361.3227 190.29578l80.37793 158.96063" fill-rule="evenodd"/><path fill="#000000" fill-opacity="0.0" d="m209.48163 235.4147l-37.669296 4.7873993" fill-rule="evenodd"/><path stroke="#000000" stroke-width="1.0" stroke-linejoin="round" stroke-linecap="butt" d="m209.48163 235.4147l-37.669296 4.7873993" fill-rule="evenodd"/><path fill="#000000" fill-opacity="0.0" d="m280.34778 235.4147l287.49603 4.7873993" fill-rule="evenodd"/><path stroke="#000000" stroke-width="1.0" stroke-linejoin="round" stroke-linecap="butt" d="m280.34778 235.4147l287.49603 4.7873993" fill-rule="evenodd"/><path fill="#000000" fill-opacity="0.0" d="m452.9908 153.09842l-11.275604 -31.52755" fill-rule="evenodd"/><path stroke="#000000" stroke-width="1.0" stroke-linejoin="round" stroke-linecap="butt" d="m452.9908 153.09842l-11.275604 -31.52755" fill-rule="evenodd"/><path fill="#000000" fill-opacity="0.0" d="m427.93585 163.3197l-105.322845 -83.08661" fill-rule="evenodd"/><path stroke="#000000" stroke-width="1.0" stroke-linejoin="round" stroke-linecap="butt" d="m427.93585 163.3197l-105.322845 -83.08661" fill-rule="evenodd"/><path fill="#000000" fill-opacity="0.0" d="m488.4239 187.99606l142.2362 10.866135" fill-rule="evenodd"/><path stroke="#000000" stroke-width="1.0" stroke-linejoin="round" stroke-linecap="butt" d="m488.4239 187.99606l142.2362 10.866135" fill-rule="evenodd"/><path fill="#000000" fill-opacity="0.0" d="m478.04578 212.67242l26.456696 177.92126" fill-rule="evenodd"/><path stroke="#000000" stroke-width="1.0" stroke-linejoin="round" stroke-linecap="butt" d="m478.04578 212.67242l26.456696 177.92126" fill-rule="evenodd"/><path fill="#000000" fill-opacity="0.0" d="m269.96967 260.09106l108.944885 130.51968" fill-rule="evenodd"/><path stroke="#000000" stroke-width="1.0" stroke-linejoin="round" stroke-linecap="butt" d="m269.96967 260.09106l108.944885 130.51968" fill-rule="evenodd"/><path fill="#000000" fill-opacity="0.0" d="m311.21274 140.94307l-51.40155 -19.370079" fill-rule="evenodd"/><path stroke="#000000" stroke-width="1.0" stroke-linejoin="round" stroke-linecap="butt" d="m311.21274 140.94307l-51.40155 -19.370079" fill-rule="evenodd"/><path fill="#000000" fill-opacity="0.0" d="m427.93716 252.96144l-318.92914 28.598434" fill-rule="evenodd"/><path stroke="#000000" stroke-width="1.0" stroke-linejoin="round" stroke-linecap="butt" d="m427.93716 252.96144l-318.92914 28.598434" fill-rule="evenodd"/><path fill="#000000" fill-opacity="0.0" d="m488.4252 277.6378l142.23624 3.9055176" fill-rule="evenodd"/><path stroke="#000000" stroke-width="1.0" stroke-linejoin="round" stroke-linecap="butt" d="m488.4252 277.6378l142.23624 3.9055176" fill-rule="evenodd"/></g></svg>